<?xml version="1.0" encoding="UTF-8" standalone="no"?>
<!DOCTYPE svg PUBLIC "-//W3C//DTD SVG 1.1//EN"
 "http://www.w3.org/Graphics/SVG/1.1/DTD/svg11.dtd">
<!-- Generated by graphviz version 2.38.0 (20140413.2041)
 -->
<!-- Title: Island Pages: 1 -->
<svg width="632pt" height="282pt"
 viewBox="0.00 0.00 632.00 282.00" xmlns="http://www.w3.org/2000/svg" xmlns:xlink="http://www.w3.org/1999/xlink">
<g id="graph0" class="graph" transform="scale(1 1) rotate(0) translate(4 278)">
<title>Island</title>
<!-- Node1 -->
<g id="node1" class="node"><title>Node1</title>
<g id="a_node1"><a xlink:title="This is an internal class.">
<polygon fill="#bfbfbf" stroke="black" points="458,-0.5 458,-21.5 505,-21.5 505,-0.5 458,-0.5"/>
<text text-anchor="middle" x="481.5" y="-7.9" font-family="Helvetica,sans-Serif" font-size="12.00">Island</text>
</a>
</g>
</g>
<!-- Node2 -->
<g id="node2" class="node"><title>Node2</title>
<g id="a_node2"><a xlink:href="classnkast_1_1_aether_1_1_physics2_d_1_1_dynamics_1_1_body.html" target="_top" xlink:title=" ">
<polygon fill="none" stroke="black" points="267.5,-71.5 267.5,-92.5 311.5,-92.5 311.5,-71.5 267.5,-71.5"/>
<text text-anchor="middle" x="289.5" y="-78.9" font-family="Helvetica,sans-Serif" font-size="12.00">Body</text>
</a>
</g>
</g>
<!-- Node2&#45;&gt;Node1 -->
<g id="edge1" class="edge"><title>Node2&#45;&gt;Node1</title>
<path fill="none" stroke="#9a32cd" stroke-dasharray="5,2" d="M321.183,-69.6139C359.634,-55.7955 423.578,-32.8159 457.939,-20.4672"/>
<polygon fill="#9a32cd" stroke="#9a32cd" points="319.752,-66.409 311.525,-73.0848 322.119,-72.9965 319.752,-66.409"/>
<text text-anchor="middle" x="424" y="-43.4" font-family="Helvetica,sans-Serif" font-size="12.00"> Bodies</text>
</g>
<!-- Node3 -->
<g id="node3" class="node"><title>Node3</title>
<g id="a_node3"><a xlink:href="structnkast_1_1_aether_1_1_physics2_d_1_1_common_1_1_vector2.html" target="_top" xlink:title=" ">
<polygon fill="none" stroke="red" points="201.5,-252.5 201.5,-273.5 259.5,-273.5 259.5,-252.5 201.5,-252.5"/>
<text text-anchor="middle" x="230.5" y="-259.9" font-family="Helvetica,sans-Serif" font-size="12.00">Vector2</text>
</a>
</g>
</g>
<!-- Node3&#45;&gt;Node2 -->
<g id="edge2" class="edge"><title>Node3&#45;&gt;Node2</title>
<path fill="none" stroke="#9a32cd" stroke-dasharray="5,2" d="M194.498,-248.524C149.284,-229.49 80.8837,-192.401 109.5,-151 145.684,-98.6505 227.69,-86.5571 267.286,-83.7957"/>
<polygon fill="#9a32cd" stroke="#9a32cd" points="193.448,-251.876 204.029,-252.417 196.095,-245.396 193.448,-251.876"/>
<text text-anchor="middle" x="148" y="-167.4" font-family="Helvetica,sans-Serif" font-size="12.00"> _force</text>
<text text-anchor="middle" x="148" y="-154.4" font-family="Helvetica,sans-Serif" font-size="12.00">_linearVelocity</text>
</g>
<!-- Node9 -->
<g id="node5" class="node"><title>Node9</title>
<g id="a_node5"><a xlink:href="structnkast_1_1_aether_1_1_physics2_d_1_1_common_1_1_transform.html" target="_top" xlink:title="A transform contains translation and rotation. It is used to represent the position and orientation o...">
<polygon fill="none" stroke="red" points="196,-153.5 196,-174.5 265,-174.5 265,-153.5 196,-153.5"/>
<text text-anchor="middle" x="230.5" y="-160.9" font-family="Helvetica,sans-Serif" font-size="12.00">Transform</text>
</a>
</g>
</g>
<!-- Node3&#45;&gt;Node9 -->
<g id="edge5" class="edge"><title>Node3&#45;&gt;Node9</title>
<path fill="none" stroke="#9a32cd" stroke-dasharray="5,2" d="M230.5,-242.187C230.5,-221.61 230.5,-190.278 230.5,-174.616"/>
<polygon fill="#9a32cd" stroke="#9a32cd" points="227,-242.345 230.5,-252.345 234,-242.345 227,-242.345"/>
<text text-anchor="middle" x="235.5" y="-211.4" font-family="Helvetica,sans-Serif" font-size="12.00"> p</text>
</g>
<!-- Node32 -->
<g id="node7" class="node"><title>Node32</title>
<g id="a_node7"><a xlink:href="structnkast_1_1_aether_1_1_physics2_d_1_1_common_1_1_sweep.html" target="_top" xlink:title="This describes the motion of a body/shape for TOI computation. Shapes are defined with respect to the...">
<polygon fill="none" stroke="black" points="0,-153.5 0,-174.5 53,-174.5 53,-153.5 0,-153.5"/>
<text text-anchor="middle" x="26.5" y="-160.9" font-family="Helvetica,sans-Serif" font-size="12.00">Sweep</text>
</a>
</g>
</g>
<!-- Node3&#45;&gt;Node32 -->
<g id="edge8" class="edge"><title>Node3&#45;&gt;Node32</title>
<path fill="none" stroke="#9a32cd" stroke-dasharray="5,2" d="M190.824,-262.586C136.683,-262.44 43.9175,-258.494 22.5,-234 8.12467,-217.56 16.211,-189.621 22.0871,-174.842"/>
<polygon fill="#9a32cd" stroke="#9a32cd" points="191.111,-266.086 201.105,-262.57 191.099,-259.086 191.111,-266.086"/>
<text text-anchor="middle" x="54.5" y="-224.4" font-family="Helvetica,sans-Serif" font-size="12.00"> C</text>
<text text-anchor="middle" x="54.5" y="-211.4" font-family="Helvetica,sans-Serif" font-size="12.00">C0</text>
<text text-anchor="middle" x="54.5" y="-198.4" font-family="Helvetica,sans-Serif" font-size="12.00">LocalCenter</text>
</g>
<!-- Node33 -->
<g id="node8" class="node"><title>Node33</title>
<g id="a_node8"><a xlink:title=" ">
<polygon fill="none" stroke="#bfbfbf" points="435.5,-111.5 435.5,-132.5 527.5,-132.5 527.5,-111.5 435.5,-111.5"/>
<text text-anchor="middle" x="481.5" y="-118.9" font-family="Helvetica,sans-Serif" font-size="12.00">SolverPosition</text>
</a>
</g>
</g>
<!-- Node3&#45;&gt;Node33 -->
<g id="edge10" class="edge"><title>Node3&#45;&gt;Node33</title>
<path fill="none" stroke="#9a32cd" stroke-dasharray="5,2" d="M269.799,-257.653C320.582,-250.027 408.722,-229.666 461.5,-177 473.672,-164.854 478.516,-144.653 480.385,-132.703"/>
<polygon fill="#9a32cd" stroke="#9a32cd" points="269.272,-254.193 259.859,-259.055 270.249,-261.124 269.272,-254.193"/>
<text text-anchor="middle" x="445.5" y="-211.4" font-family="Helvetica,sans-Serif" font-size="12.00"> c</text>
</g>
<!-- Node34 -->
<g id="node9" class="node"><title>Node34</title>
<g id="a_node9"><a xlink:title=" ">
<polygon fill="none" stroke="#bfbfbf" points="533,-111.5 533,-132.5 624,-132.5 624,-111.5 533,-111.5"/>
<text text-anchor="middle" x="578.5" y="-118.9" font-family="Helvetica,sans-Serif" font-size="12.00">SolverVelocity</text>
</a>
</g>
</g>
<!-- Node3&#45;&gt;Node34 -->
<g id="edge12" class="edge"><title>Node3&#45;&gt;Node34</title>
<path fill="none" stroke="#9a32cd" stroke-dasharray="5,2" d="M270.037,-259.894C325.309,-256.471 422.499,-248.57 454.5,-234 507.618,-209.816 554.114,-154.687 571.366,-132.505"/>
<polygon fill="#9a32cd" stroke="#9a32cd" points="269.674,-256.41 259.901,-260.501 270.093,-263.397 269.674,-256.41"/>
<text text-anchor="middle" x="516" y="-211.4" font-family="Helvetica,sans-Serif" font-size="12.00"> v</text>
</g>
<!-- Node5 -->
<g id="node4" class="node"><title>Node5</title>
<g id="a_node4"><a xlink:href="classnkast_1_1_aether_1_1_physics2_d_1_1_dynamics_1_1_fixture_collection.html" target="_top" xlink:title=" ">
<polygon fill="none" stroke="red" points="283.5,-153.5 283.5,-174.5 387.5,-174.5 387.5,-153.5 283.5,-153.5"/>
<text text-anchor="middle" x="335.5" y="-160.9" font-family="Helvetica,sans-Serif" font-size="12.00">FixtureCollection</text>
</a>
</g>
</g>
<!-- Node5&#45;&gt;Node2 -->
<g id="edge3" class="edge"><title>Node5&#45;&gt;Node2</title>
<path fill="none" stroke="#9a32cd" stroke-dasharray="5,2" d="M320.957,-145.377C317.988,-141.42 315.008,-137.159 312.5,-133 304.408,-119.581 297.245,-102.835 293.141,-92.5319"/>
<polygon fill="#9a32cd" stroke="#9a32cd" points="318.325,-147.692 327.253,-153.395 323.83,-143.369 318.325,-147.692"/>
<text text-anchor="middle" x="341.5" y="-118.9" font-family="Helvetica,sans-Serif" font-size="12.00"> FixtureList</text>
</g>
<!-- Node9&#45;&gt;Node2 -->
<g id="edge4" class="edge"><title>Node9&#45;&gt;Node2</title>
<path fill="none" stroke="#9a32cd" stroke-dasharray="5,2" d="M243.729,-145.062C255.612,-128.949 272.621,-105.886 282.206,-92.8898"/>
<polygon fill="#9a32cd" stroke="#9a32cd" points="240.853,-143.065 237.735,-153.19 246.487,-147.22 240.853,-143.065"/>
<text text-anchor="middle" x="279" y="-118.9" font-family="Helvetica,sans-Serif" font-size="12.00"> _xf</text>
</g>
<!-- Node11 -->
<g id="node6" class="node"><title>Node11</title>
<g id="a_node6"><a xlink:href="classnkast_1_1_aether_1_1_physics2_d_1_1_dynamics_1_1_world.html" target="_top" xlink:title="The world class manages all physics entities, dynamic simulation, and asynchronous queries.">
<polygon fill="none" stroke="red" points="406,-153.5 406,-174.5 453,-174.5 453,-153.5 406,-153.5"/>
<text text-anchor="middle" x="429.5" y="-160.9" font-family="Helvetica,sans-Serif" font-size="12.00">World</text>
</a>
</g>
</g>
<!-- Node11&#45;&gt;Node2 -->
<g id="edge6" class="edge"><title>Node11&#45;&gt;Node2</title>
<path fill="none" stroke="#9a32cd" stroke-dasharray="5,2" d="M405.983,-147.363C400.039,-142.995 393.834,-138.054 388.5,-133 379.329,-124.311 380.863,-118.226 370.5,-111 352.681,-98.5742 328.841,-91.2144 311.644,-87.1838"/>
<polygon fill="#9a32cd" stroke="#9a32cd" points="404.187,-150.379 414.372,-153.297 408.229,-144.664 404.187,-150.379"/>
<text text-anchor="middle" x="407.5" y="-118.9" font-family="Helvetica,sans-Serif" font-size="12.00"> _world</text>
</g>
<!-- Node32&#45;&gt;Node2 -->
<g id="edge7" class="edge"><title>Node32&#45;&gt;Node2</title>
<path fill="none" stroke="#9a32cd" stroke-dasharray="5,2" d="M27.0744,-143.078C28.5024,-131.962 32.2389,-118.819 41.5,-111 75.2687,-82.4881 212.701,-81.6367 267.14,-82.4673"/>
<polygon fill="#9a32cd" stroke="#9a32cd" points="23.5696,-143.008 26.2967,-153.246 30.5492,-143.542 23.5696,-143.008"/>
<text text-anchor="middle" x="64" y="-118.9" font-family="Helvetica,sans-Serif" font-size="12.00"> _sweep</text>
</g>
<!-- Node33&#45;&gt;Node1 -->
<g id="edge9" class="edge"><title>Node33&#45;&gt;Node1</title>
<path fill="none" stroke="#9a32cd" stroke-dasharray="5,2" d="M481.5,-101.144C481.5,-77.6981 481.5,-39.6417 481.5,-21.808"/>
<polygon fill="#9a32cd" stroke="#9a32cd" points="478,-101.327 481.5,-111.327 485,-101.327 478,-101.327"/>
<text text-anchor="middle" x="510.5" y="-78.9" font-family="Helvetica,sans-Serif" font-size="12.00"> _positions</text>
</g>
<!-- Node34&#45;&gt;Node1 -->
<g id="edge11" class="edge"><title>Node34&#45;&gt;Node1</title>
<path fill="none" stroke="#9a32cd" stroke-dasharray="5,2" d="M567.059,-102.839C560.587,-93.0571 552.088,-80.9828 543.5,-71 527.414,-52.302 506.12,-33.0452 493.136,-21.8162"/>
<polygon fill="#9a32cd" stroke="#9a32cd" points="564.209,-104.878 572.579,-111.373 570.086,-101.075 564.209,-104.878"/>
<text text-anchor="middle" x="590" y="-78.9" font-family="Helvetica,sans-Serif" font-size="12.00"> _velocities</text>
</g>
</g>
</svg>
