<?xml version="1.0" encoding="UTF-8" standalone="no"?>
<!DOCTYPE svg PUBLIC "-//W3C//DTD SVG 1.1//EN"
 "http://www.w3.org/Graphics/SVG/1.1/DTD/svg11.dtd">
<!-- Generated by graphviz version 2.38.0 (20140413.2041)
 -->
<!-- Title: World Pages: 1 -->
<svg width="577pt" height="430pt"
 viewBox="0.00 0.00 577.00 430.00" xmlns="http://www.w3.org/2000/svg" xmlns:xlink="http://www.w3.org/1999/xlink">
<g id="graph0" class="graph" transform="scale(1 1) rotate(0) translate(4 426)">
<title>World</title>
<!-- Node1 -->
<g id="node1" class="node"><title>Node1</title>
<g id="a_node1"><a xlink:title="The world class manages all physics entities, dynamic simulation, and asynchronous queries.">
<polygon fill="#bfbfbf" stroke="black" points="522,-190.5 522,-211.5 569,-211.5 569,-190.5 522,-190.5"/>
<text text-anchor="middle" x="545.5" y="-197.9" font-family="Helvetica,sans-Serif" font-size="12.00">World</text>
</a>
</g>
</g>
<!-- Node2 -->
<g id="node2" class="node"><title>Node2</title>
<g id="a_node2"><a xlink:href="classnkast_1_1_aether_1_1_physics2_d_1_1_dynamics_1_1_joint_collection.html" target="_top" xlink:title=" ">
<polygon fill="none" stroke="black" points="289,-340.5 289,-361.5 382,-361.5 382,-340.5 289,-340.5"/>
<text text-anchor="middle" x="335.5" y="-347.9" font-family="Helvetica,sans-Serif" font-size="12.00">JointCollection</text>
</a>
</g>
</g>
<!-- Node2&#45;&gt;Node1 -->
<g id="edge1" class="edge"><title>Node2&#45;&gt;Node1</title>
<path fill="none" stroke="#9a32cd" stroke-dasharray="5,2" d="M361.753,-334.919C395.085,-313.413 455.243,-273.62 504,-236 514.006,-228.279 524.811,-218.884 532.742,-211.772"/>
<polygon fill="#9a32cd" stroke="#9a32cd" points="359.616,-332.133 353.095,-340.483 363.4,-338.021 359.616,-332.133"/>
<text text-anchor="middle" x="458.5" y="-303.4" font-family="Helvetica,sans-Serif" font-size="12.00"> JointList</text>
</g>
<!-- Node3 -->
<g id="node3" class="node"><title>Node3</title>
<g id="a_node3"><a xlink:title=" ">
<polygon fill="none" stroke="#bfbfbf" points="13,-400.5 13,-421.5 139,-421.5 139,-400.5 13,-400.5"/>
<text text-anchor="middle" x="76" y="-407.9" font-family="Helvetica,sans-Serif" font-size="12.00">IEnumerable&lt; Joint &gt;</text>
</a>
</g>
</g>
<!-- Node3&#45;&gt;Node2 -->
<g id="edge2" class="edge"><title>Node3&#45;&gt;Node2</title>
<path fill="none" stroke="midnightblue" d="M145.033,-398.603C179.115,-392.01 220.918,-383.344 258,-374 272.524,-370.34 288.409,-365.675 301.921,-361.504"/>
<polygon fill="midnightblue" stroke="midnightblue" points="144.339,-395.172 135.178,-400.494 145.658,-402.047 144.339,-395.172"/>
</g>
<!-- Node4 -->
<g id="node4" class="node"><title>Node4</title>
<g id="a_node4"><a xlink:title=" ">
<polygon fill="none" stroke="#bfbfbf" points="18.5,-360.5 18.5,-381.5 133.5,-381.5 133.5,-360.5 18.5,-360.5"/>
<text text-anchor="middle" x="76" y="-367.9" font-family="Helvetica,sans-Serif" font-size="12.00">ICollection&lt; Joint &gt;</text>
</a>
</g>
</g>
<!-- Node4&#45;&gt;Node2 -->
<g id="edge3" class="edge"><title>Node4&#45;&gt;Node2</title>
<path fill="none" stroke="midnightblue" d="M143.61,-365.826C189.222,-362.284 248.523,-357.678 288.843,-354.546"/>
<polygon fill="midnightblue" stroke="midnightblue" points="143.208,-362.347 133.509,-366.611 143.751,-369.326 143.208,-362.347"/>
</g>
<!-- Node5 -->
<g id="node5" class="node"><title>Node5</title>
<g id="a_node5"><a xlink:title=" ">
<polygon fill="none" stroke="#bfbfbf" points="35,-320.5 35,-341.5 117,-341.5 117,-320.5 35,-320.5"/>
<text text-anchor="middle" x="76" y="-327.9" font-family="Helvetica,sans-Serif" font-size="12.00">IList&lt; Joint &gt;</text>
</a>
</g>
</g>
<!-- Node5&#45;&gt;Node2 -->
<g id="edge4" class="edge"><title>Node5&#45;&gt;Node2</title>
<path fill="none" stroke="midnightblue" d="M127.474,-334.92C174.383,-338.564 243.635,-343.943 288.909,-347.459"/>
<polygon fill="midnightblue" stroke="midnightblue" points="127.475,-331.41 117.234,-334.125 126.933,-338.389 127.475,-331.41"/>
</g>
<!-- Node6 -->
<g id="node6" class="node"><title>Node6</title>
<g id="a_node6"><a xlink:href="classnkast_1_1_aether_1_1_physics2_d_1_1_dynamics_1_1_body_collection.html" target="_top" xlink:title=" ">
<polygon fill="none" stroke="black" points="288,-220.5 288,-241.5 383,-241.5 383,-220.5 288,-220.5"/>
<text text-anchor="middle" x="335.5" y="-227.9" font-family="Helvetica,sans-Serif" font-size="12.00">BodyCollection</text>
</a>
</g>
</g>
<!-- Node6&#45;&gt;Node1 -->
<g id="edge5" class="edge"><title>Node6&#45;&gt;Node1</title>
<path fill="none" stroke="#9a32cd" stroke-dasharray="5,2" d="M393.105,-222.836C435.528,-216.717 491.337,-208.668 521.965,-204.25"/>
<polygon fill="#9a32cd" stroke="#9a32cd" points="392.577,-219.376 383.179,-224.267 393.577,-226.304 392.577,-219.376"/>
<text text-anchor="middle" x="458.5" y="-222.4" font-family="Helvetica,sans-Serif" font-size="12.00"> BodyList</text>
</g>
<!-- Node7 -->
<g id="node7" class="node"><title>Node7</title>
<g id="a_node7"><a xlink:title=" ">
<polygon fill="none" stroke="#bfbfbf" points="12,-280.5 12,-301.5 140,-301.5 140,-280.5 12,-280.5"/>
<text text-anchor="middle" x="76" y="-287.9" font-family="Helvetica,sans-Serif" font-size="12.00">IEnumerable&lt; Body &gt;</text>
</a>
</g>
</g>
<!-- Node7&#45;&gt;Node6 -->
<g id="edge6" class="edge"><title>Node7&#45;&gt;Node6</title>
<path fill="none" stroke="midnightblue" d="M145.033,-278.603C179.115,-272.01 220.918,-263.344 258,-254 272.524,-250.34 288.409,-245.675 301.921,-241.504"/>
<polygon fill="midnightblue" stroke="midnightblue" points="144.339,-275.172 135.178,-280.494 145.658,-282.047 144.339,-275.172"/>
</g>
<!-- Node8 -->
<g id="node8" class="node"><title>Node8</title>
<g id="a_node8"><a xlink:title=" ">
<polygon fill="none" stroke="#bfbfbf" points="17.5,-240.5 17.5,-261.5 134.5,-261.5 134.5,-240.5 17.5,-240.5"/>
<text text-anchor="middle" x="76" y="-247.9" font-family="Helvetica,sans-Serif" font-size="12.00">ICollection&lt; Body &gt;</text>
</a>
</g>
</g>
<!-- Node8&#45;&gt;Node6 -->
<g id="edge7" class="edge"><title>Node8&#45;&gt;Node6</title>
<path fill="none" stroke="midnightblue" d="M144.764,-245.737C189.769,-242.241 247.703,-237.742 287.651,-234.639"/>
<polygon fill="midnightblue" stroke="midnightblue" points="144.487,-242.248 134.788,-246.512 145.029,-249.227 144.487,-242.248"/>
</g>
<!-- Node9 -->
<g id="node9" class="node"><title>Node9</title>
<g id="a_node9"><a xlink:title=" ">
<polygon fill="none" stroke="#bfbfbf" points="34,-200.5 34,-221.5 118,-221.5 118,-200.5 34,-200.5"/>
<text text-anchor="middle" x="76" y="-207.9" font-family="Helvetica,sans-Serif" font-size="12.00">IList&lt; Body &gt;</text>
</a>
</g>
</g>
<!-- Node9&#45;&gt;Node6 -->
<g id="edge8" class="edge"><title>Node9&#45;&gt;Node6</title>
<path fill="none" stroke="midnightblue" d="M128.258,-214.981C174.802,-218.596 242.861,-223.882 287.896,-227.38"/>
<polygon fill="midnightblue" stroke="midnightblue" points="128.327,-211.476 118.086,-214.191 127.785,-218.455 128.327,-211.476"/>
</g>
<!-- Node10 -->
<g id="node10" class="node"><title>Node10</title>
<g id="a_node10"><a xlink:href="classnkast_1_1_aether_1_1_physics2_d_1_1_dynamics_1_1_contact_manager.html" target="_top" xlink:title=" ">
<polygon fill="none" stroke="black" points="283.5,-160.5 283.5,-181.5 387.5,-181.5 387.5,-160.5 283.5,-160.5"/>
<text text-anchor="middle" x="335.5" y="-167.9" font-family="Helvetica,sans-Serif" font-size="12.00">ContactManager</text>
</a>
</g>
</g>
<!-- Node10&#45;&gt;Node1 -->
<g id="edge9" class="edge"><title>Node10&#45;&gt;Node1</title>
<path fill="none" stroke="#9a32cd" stroke-dasharray="5,2" d="M397.808,-175.698C429.659,-178.708 469.114,-183.324 504,-190 509.868,-191.123 516.132,-192.655 521.937,-194.219"/>
<polygon fill="#9a32cd" stroke="#9a32cd" points="398.028,-172.204 387.75,-174.777 397.389,-179.175 398.028,-172.204"/>
<text text-anchor="middle" x="458.5" y="-193.4" font-family="Helvetica,sans-Serif" font-size="12.00"> ContactManager</text>
</g>
<!-- Node11 -->
<g id="node11" class="node"><title>Node11</title>
<g id="a_node11"><a xlink:href="classnkast_1_1_aether_1_1_physics2_d_1_1_dynamics_1_1_contacts_1_1_contact_list_head.html" target="_top" xlink:title="Head of a circular doubly linked list.">
<polygon fill="none" stroke="red" points="24,-160.5 24,-181.5 128,-181.5 128,-160.5 24,-160.5"/>
<text text-anchor="middle" x="76" y="-167.9" font-family="Helvetica,sans-Serif" font-size="12.00">ContactListHead</text>
</a>
</g>
</g>
<!-- Node11&#45;&gt;Node10 -->
<g id="edge10" class="edge"><title>Node11&#45;&gt;Node10</title>
<path fill="none" stroke="#9a32cd" stroke-dasharray="5,2" d="M138.244,-171C182.528,-171 241.669,-171 283.415,-171"/>
<polygon fill="#9a32cd" stroke="#9a32cd" points="138.182,-167.5 128.182,-171 138.182,-174.5 138.182,-167.5"/>
<text text-anchor="middle" x="214" y="-187.4" font-family="Helvetica,sans-Serif" font-size="12.00"> ContactList</text>
<text text-anchor="middle" x="214" y="-174.4" font-family="Helvetica,sans-Serif" font-size="12.00">_contactPoolList</text>
</g>
<!-- Node19 -->
<g id="node12" class="node"><title>Node19</title>
<g id="a_node12"><a xlink:href="interfacenkast_1_1_aether_1_1_physics2_d_1_1_collision_1_1_i_broad_phase.html" target="_top" xlink:title=" ">
<polygon fill="none" stroke="black" points="6,-120.5 6,-141.5 146,-141.5 146,-120.5 6,-120.5"/>
<text text-anchor="middle" x="76" y="-127.9" font-family="Helvetica,sans-Serif" font-size="12.00">IBroadPhase&lt; TNode &gt;</text>
</a>
</g>
</g>
<!-- Node19&#45;&gt;Node10 -->
<g id="edge11" class="edge"><title>Node19&#45;&gt;Node10</title>
<path fill="none" stroke="#9a32cd" stroke-dasharray="5,2" d="M156.51,-139.496C188.187,-143.299 224.914,-148.234 258,-154 268.455,-155.822 279.64,-158.112 290.141,-160.415"/>
<polygon fill="#9a32cd" stroke="#9a32cd" points="156.756,-136.001 146.414,-138.301 155.933,-142.952 156.756,-136.001"/>
<text text-anchor="middle" x="214" y="-157.4" font-family="Helvetica,sans-Serif" font-size="12.00"> BroadPhase</text>
</g>
<!-- Node20 -->
<g id="node13" class="node"><title>Node20</title>
<g id="a_node13"><a xlink:href="classnkast_1_1_aether_1_1_physics2_d_1_1_dynamics_1_1_controller_collection.html" target="_top" xlink:title=" ">
<polygon fill="none" stroke="black" points="276,-60.5 276,-81.5 395,-81.5 395,-60.5 276,-60.5"/>
<text text-anchor="middle" x="335.5" y="-67.9" font-family="Helvetica,sans-Serif" font-size="12.00">ControllerCollection</text>
</a>
</g>
</g>
<!-- Node20&#45;&gt;Node1 -->
<g id="edge12" class="edge"><title>Node20&#45;&gt;Node1</title>
<path fill="none" stroke="#9a32cd" stroke-dasharray="5,2" d="M371.093,-85.629C406.274,-101.342 461.507,-128.364 504,-160 516.038,-168.962 527.874,-181.498 535.611,-190.343"/>
<polygon fill="#9a32cd" stroke="#9a32cd" points="372.292,-82.3324 361.729,-81.5024 369.469,-88.738 372.292,-82.3324"/>
<text text-anchor="middle" x="458.5" y="-163.4" font-family="Helvetica,sans-Serif" font-size="12.00"> ControllerList</text>
</g>
<!-- Node21 -->
<g id="node14" class="node"><title>Node21</title>
<g id="a_node14"><a xlink:title=" ">
<polygon fill="none" stroke="#bfbfbf" points="0,-80.5 0,-101.5 152,-101.5 152,-80.5 0,-80.5"/>
<text text-anchor="middle" x="76" y="-87.9" font-family="Helvetica,sans-Serif" font-size="12.00">IEnumerable&lt; Controller &gt;</text>
</a>
</g>
</g>
<!-- Node21&#45;&gt;Node20 -->
<g id="edge13" class="edge"><title>Node21&#45;&gt;Node20</title>
<path fill="none" stroke="midnightblue" d="M162.482,-84.3606C199.588,-81.4786 242.119,-78.1752 275.607,-75.5742"/>
<polygon fill="midnightblue" stroke="midnightblue" points="161.871,-80.8975 152.172,-85.1614 162.413,-87.8764 161.871,-80.8975"/>
</g>
<!-- Node22 -->
<g id="node15" class="node"><title>Node22</title>
<g id="a_node15"><a xlink:title=" ">
<polygon fill="none" stroke="#bfbfbf" points="6,-40.5 6,-61.5 146,-61.5 146,-40.5 6,-40.5"/>
<text text-anchor="middle" x="76" y="-47.9" font-family="Helvetica,sans-Serif" font-size="12.00">ICollection&lt; Controller &gt;</text>
</a>
</g>
</g>
<!-- Node22&#45;&gt;Node20 -->
<g id="edge14" class="edge"><title>Node22&#45;&gt;Node20</title>
<path fill="none" stroke="midnightblue" d="M156.17,-57.1491C194.757,-60.1462 240.358,-63.688 275.787,-66.4398"/>
<polygon fill="midnightblue" stroke="midnightblue" points="156.246,-53.6446 146.005,-56.3596 155.704,-60.6236 156.246,-53.6446"/>
</g>
<!-- Node23 -->
<g id="node16" class="node"><title>Node23</title>
<g id="a_node16"><a xlink:title=" ">
<polygon fill="none" stroke="#bfbfbf" points="22.5,-0.5 22.5,-21.5 129.5,-21.5 129.5,-0.5 22.5,-0.5"/>
<text text-anchor="middle" x="76" y="-7.9" font-family="Helvetica,sans-Serif" font-size="12.00">IList&lt; Controller &gt;</text>
</a>
</g>
</g>
<!-- Node23&#45;&gt;Node20 -->
<g id="edge15" class="edge"><title>Node23&#45;&gt;Node20</title>
<path fill="none" stroke="midnightblue" d="M132.142,-23.8485C179.059,-34.7807 245.615,-50.2889 289.404,-60.4922"/>
<polygon fill="midnightblue" stroke="midnightblue" points="132.681,-20.3806 122.148,-21.5199 131.093,-27.1979 132.681,-20.3806"/>
</g>
</g>
</svg>
