<?xml version="1.0" encoding="UTF-8" standalone="no"?>
<!DOCTYPE svg PUBLIC "-//W3C//DTD SVG 1.1//EN"
 "http://www.w3.org/Graphics/SVG/1.1/DTD/svg11.dtd">
<!-- Generated by graphviz version 2.38.0 (20140413.2041)
 -->
<!-- Title: ContactListHead Pages: 1 -->
<svg width="286pt" height="173pt"
 viewBox="0.00 0.00 286.00 173.00" xmlns="http://www.w3.org/2000/svg" xmlns:xlink="http://www.w3.org/1999/xlink">
<g id="graph0" class="graph" transform="scale(1 1) rotate(0) translate(4 169)">
<title>ContactListHead</title>
<!-- Node1 -->
<g id="node1" class="node"><title>Node1</title>
<g id="a_node1"><a xlink:title="Head of a circular doubly linked list.">
<polygon fill="#bfbfbf" stroke="black" points="125,-0.5 125,-21.5 229,-21.5 229,-0.5 125,-0.5"/>
<text text-anchor="middle" x="177" y="-7.9" font-family="Helvetica,sans-Serif" font-size="12.00">ContactListHead</text>
</a>
</g>
</g>
<!-- Node2 -->
<g id="node2" class="node"><title>Node2</title>
<g id="a_node2"><a xlink:href="classnkast_1_1_aether_1_1_physics2_d_1_1_dynamics_1_1_contacts_1_1_contact.html" target="_top" xlink:title="The class manages contact between two shapes. A contact exists for each overlapping AABB in the broad...">
<polygon fill="none" stroke="black" points="60.5,-59.5 60.5,-80.5 117.5,-80.5 117.5,-59.5 60.5,-59.5"/>
<text text-anchor="middle" x="89" y="-66.9" font-family="Helvetica,sans-Serif" font-size="12.00">Contact</text>
</a>
</g>
</g>
<!-- Node2&#45;&gt;Node1 -->
<g id="edge1" class="edge"><title>Node2&#45;&gt;Node1</title>
<path fill="none" stroke="midnightblue" d="M112.632,-53.6931C128.443,-43.4518 148.756,-30.2942 162.292,-21.5265"/>
<polygon fill="midnightblue" stroke="midnightblue" points="110.418,-50.9566 103.928,-59.3307 114.224,-56.8318 110.418,-50.9566"/>
</g>
<!-- Node3 -->
<g id="node3" class="node"><title>Node3</title>
<g id="a_node3"><a xlink:href="classnkast_1_1_aether_1_1_physics2_d_1_1_dynamics_1_1_contacts_1_1_contact_edge.html" target="_top" xlink:title="A contact edge is used to connect bodies and contacts together in a contact graph where each body is ...">
<polygon fill="none" stroke="black" points="0,-143.5 0,-164.5 86,-164.5 86,-143.5 0,-143.5"/>
<text text-anchor="middle" x="43" y="-150.9" font-family="Helvetica,sans-Serif" font-size="12.00">ContactEdge</text>
</a>
</g>
</g>
<!-- Node3&#45;&gt;Node2 -->
<g id="edge2" class="edge"><title>Node3&#45;&gt;Node2</title>
<path fill="none" stroke="#9a32cd" stroke-dasharray="5,2" d="M50.7907,-133.633C55.31,-123.115 61.4033,-110.042 68,-99 71.8021,-92.6361 76.7497,-85.9786 80.8874,-80.7528"/>
<polygon fill="#9a32cd" stroke="#9a32cd" points="47.4496,-132.552 46.8358,-143.129 53.9116,-135.243 47.4496,-132.552"/>
<text text-anchor="middle" x="90.5" y="-115.4" font-family="Helvetica,sans-Serif" font-size="12.00"> _nodeA</text>
<text text-anchor="middle" x="90.5" y="-102.4" font-family="Helvetica,sans-Serif" font-size="12.00">_nodeB</text>
</g>
<!-- Node4 -->
<g id="node4" class="node"><title>Node4</title>
<g id="a_node4"><a xlink:href="structnkast_1_1_aether_1_1_physics2_d_1_1_collision_1_1_manifold.html" target="_top" xlink:title="A manifold for two touching convex Shapes. Box2D supports multiple types of contact:">
<polygon fill="none" stroke="red" points="104.5,-143.5 104.5,-164.5 165.5,-164.5 165.5,-143.5 104.5,-143.5"/>
<text text-anchor="middle" x="135" y="-150.9" font-family="Helvetica,sans-Serif" font-size="12.00">Manifold</text>
</a>
</g>
</g>
<!-- Node4&#45;&gt;Node2 -->
<g id="edge3" class="edge"><title>Node4&#45;&gt;Node2</title>
<path fill="none" stroke="#9a32cd" stroke-dasharray="5,2" d="M128.881,-133.791C125.076,-123.141 119.643,-109.889 113,-99 108.932,-92.3318 103.291,-85.6601 98.4996,-80.5026"/>
<polygon fill="#9a32cd" stroke="#9a32cd" points="125.608,-135.04 132.128,-143.391 132.239,-132.797 125.608,-135.04"/>
<text text-anchor="middle" x="150" y="-108.9" font-family="Helvetica,sans-Serif" font-size="12.00"> Manifold</text>
</g>
<!-- Node8 -->
<g id="node5" class="node"><title>Node8</title>
<g id="a_node5"><a xlink:title=" ">
<polygon fill="none" stroke="#bfbfbf" points="136,-59.5 136,-80.5 278,-80.5 278,-59.5 136,-59.5"/>
<text text-anchor="middle" x="207" y="-66.9" font-family="Helvetica,sans-Serif" font-size="12.00">IEnumerable&lt; Contact &gt;</text>
</a>
</g>
</g>
<!-- Node8&#45;&gt;Node1 -->
<g id="edge4" class="edge"><title>Node8&#45;&gt;Node1</title>
<path fill="none" stroke="midnightblue" d="M197.237,-50.45C192.154,-40.7929 186.154,-29.3929 182.014,-21.5265"/>
<polygon fill="midnightblue" stroke="midnightblue" points="194.156,-52.1117 201.911,-59.3307 200.351,-48.8514 194.156,-52.1117"/>
</g>
</g>
</svg>
