<?xml version="1.0" encoding="UTF-8" standalone="no"?>
<!DOCTYPE svg PUBLIC "-//W3C//DTD SVG 1.1//EN"
 "http://www.w3.org/Graphics/SVG/1.1/DTD/svg11.dtd">
<!-- Generated by graphviz version 2.38.0 (20140413.2041)
 -->
<!-- Title: Body Pages: 1 -->
<svg width="684pt" height="411pt"
 viewBox="0.00 0.00 684.00 411.00" xmlns="http://www.w3.org/2000/svg" xmlns:xlink="http://www.w3.org/1999/xlink">
<g id="graph0" class="graph" transform="scale(1 1) rotate(0) translate(4 407)">
<title>Body</title>
<!-- Node1 -->
<g id="node1" class="node"><title>Node1</title>
<g id="a_node1"><a xlink:title=" ">
<polygon fill="#bfbfbf" stroke="black" points="632,-258.5 632,-279.5 676,-279.5 676,-258.5 632,-258.5"/>
<text text-anchor="middle" x="654" y="-265.9" font-family="Helvetica,sans-Serif" font-size="12.00">Body</text>
</a>
</g>
</g>
<!-- Node2 -->
<g id="node2" class="node"><title>Node2</title>
<g id="a_node2"><a xlink:href="structnkast_1_1_aether_1_1_physics2_d_1_1_common_1_1_vector2.html" target="_top" xlink:title=" ">
<polygon fill="none" stroke="black" points="209.5,-312.5 209.5,-333.5 267.5,-333.5 267.5,-312.5 209.5,-312.5"/>
<text text-anchor="middle" x="238.5" y="-319.9" font-family="Helvetica,sans-Serif" font-size="12.00">Vector2</text>
</a>
</g>
</g>
<!-- Node2&#45;&gt;Node1 -->
<g id="edge1" class="edge"><title>Node2&#45;&gt;Node1</title>
<path fill="none" stroke="#9a32cd" stroke-dasharray="5,2" d="M278.126,-323.331C346.894,-323.012 494.543,-318.207 614,-286 619.99,-284.385 626.249,-281.999 631.954,-279.523"/>
<polygon fill="#9a32cd" stroke="#9a32cd" points="277.778,-319.831 267.783,-323.347 277.789,-326.831 277.778,-319.831"/>
<text text-anchor="middle" x="486" y="-331.4" font-family="Helvetica,sans-Serif" font-size="12.00"> _force</text>
<text text-anchor="middle" x="486" y="-318.4" font-family="Helvetica,sans-Serif" font-size="12.00">_linearVelocity</text>
</g>
<!-- Node8 -->
<g id="node8" class="node"><title>Node8</title>
<g id="a_node8"><a xlink:href="structnkast_1_1_aether_1_1_physics2_d_1_1_common_1_1_transform.html" target="_top" xlink:title="A transform contains translation and rotation. It is used to represent the position and orientation o...">
<polygon fill="none" stroke="black" points="451.5,-367.5 451.5,-388.5 520.5,-388.5 520.5,-367.5 451.5,-367.5"/>
<text text-anchor="middle" x="486" y="-374.9" font-family="Helvetica,sans-Serif" font-size="12.00">Transform</text>
</a>
</g>
</g>
<!-- Node2&#45;&gt;Node8 -->
<g id="edge8" class="edge"><title>Node2&#45;&gt;Node8</title>
<path fill="none" stroke="#9a32cd" stroke-dasharray="5,2" d="M277.575,-331.53C325.161,-342.191 405.861,-360.27 451.303,-370.451"/>
<polygon fill="#9a32cd" stroke="#9a32cd" points="278.185,-328.08 267.662,-329.309 276.655,-334.911 278.185,-328.08"/>
<text text-anchor="middle" x="370.5" y="-364.4" font-family="Helvetica,sans-Serif" font-size="12.00"> p</text>
</g>
<!-- Node31 -->
<g id="node15" class="node"><title>Node31</title>
<g id="a_node15"><a xlink:href="structnkast_1_1_aether_1_1_physics2_d_1_1_common_1_1_sweep.html" target="_top" xlink:title="This describes the motion of a body/shape for TOI computation. Shapes are defined with respect to the...">
<polygon fill="none" stroke="black" points="459.5,-258.5 459.5,-279.5 512.5,-279.5 512.5,-258.5 459.5,-258.5"/>
<text text-anchor="middle" x="486" y="-265.9" font-family="Helvetica,sans-Serif" font-size="12.00">Sweep</text>
</a>
</g>
</g>
<!-- Node2&#45;&gt;Node31 -->
<g id="edge16" class="edge"><title>Node2&#45;&gt;Node31</title>
<path fill="none" stroke="#9a32cd" stroke-dasharray="5,2" d="M260.017,-305.736C276.427,-293.112 300.646,-277.018 325,-270 370.91,-256.769 427.355,-260.866 459.454,-264.979"/>
<polygon fill="#9a32cd" stroke="#9a32cd" points="257.398,-303.347 251.752,-312.313 261.756,-308.825 257.398,-303.347"/>
<text text-anchor="middle" x="370.5" y="-299.4" font-family="Helvetica,sans-Serif" font-size="12.00"> C</text>
<text text-anchor="middle" x="370.5" y="-286.4" font-family="Helvetica,sans-Serif" font-size="12.00">C0</text>
<text text-anchor="middle" x="370.5" y="-273.4" font-family="Helvetica,sans-Serif" font-size="12.00">LocalCenter</text>
</g>
<!-- Node3 -->
<g id="node3" class="node"><title>Node3</title>
<g id="a_node3"><a xlink:title=" ">
<polygon fill="none" stroke="#bfbfbf" points="0,-312.5 0,-333.5 133,-333.5 133,-312.5 0,-312.5"/>
<text text-anchor="middle" x="66.5" y="-319.9" font-family="Helvetica,sans-Serif" font-size="12.00">IEquatable&lt; Vector2 &gt;</text>
</a>
</g>
</g>
<!-- Node3&#45;&gt;Node2 -->
<g id="edge2" class="edge"><title>Node3&#45;&gt;Node2</title>
<path fill="none" stroke="midnightblue" d="M143.523,-323C166.903,-323 191.199,-323 209.23,-323"/>
<polygon fill="midnightblue" stroke="midnightblue" points="143.226,-319.5 133.226,-323 143.226,-326.5 143.226,-319.5"/>
</g>
<!-- Node4 -->
<g id="node4" class="node"><title>Node4</title>
<g id="a_node4"><a xlink:href="classnkast_1_1_aether_1_1_physics2_d_1_1_dynamics_1_1_fixture_collection.html" target="_top" xlink:title=" ">
<polygon fill="none" stroke="black" points="434,-209.5 434,-230.5 538,-230.5 538,-209.5 434,-209.5"/>
<text text-anchor="middle" x="486" y="-216.9" font-family="Helvetica,sans-Serif" font-size="12.00">FixtureCollection</text>
</a>
</g>
</g>
<!-- Node4&#45;&gt;Node1 -->
<g id="edge3" class="edge"><title>Node4&#45;&gt;Node1</title>
<path fill="none" stroke="#9a32cd" stroke-dasharray="5,2" d="M546.665,-232.895C568.12,-238.091 592.358,-244.613 614,-252 619.872,-254.004 626.089,-256.524 631.793,-259.004"/>
<polygon fill="#9a32cd" stroke="#9a32cd" points="547.241,-229.434 536.702,-230.527 545.622,-236.244 547.241,-229.434"/>
<text text-anchor="middle" x="585" y="-255.4" font-family="Helvetica,sans-Serif" font-size="12.00"> FixtureList</text>
</g>
<!-- Node5 -->
<g id="node5" class="node"><title>Node5</title>
<g id="a_node5"><a xlink:title=" ">
<polygon fill="none" stroke="#bfbfbf" points="170,-240.5 170,-261.5 307,-261.5 307,-240.5 170,-240.5"/>
<text text-anchor="middle" x="238.5" y="-247.9" font-family="Helvetica,sans-Serif" font-size="12.00">IEnumerable&lt; Fixture &gt;</text>
</a>
</g>
</g>
<!-- Node5&#45;&gt;Node4 -->
<g id="edge4" class="edge"><title>Node5&#45;&gt;Node4</title>
<path fill="none" stroke="midnightblue" d="M317.269,-241.18C355.349,-236.371 400.132,-230.717 433.841,-226.46"/>
<polygon fill="midnightblue" stroke="midnightblue" points="316.717,-237.722 307.234,-242.447 317.594,-244.667 316.717,-237.722"/>
</g>
<!-- Node6 -->
<g id="node6" class="node"><title>Node6</title>
<g id="a_node6"><a xlink:title=" ">
<polygon fill="none" stroke="#bfbfbf" points="176,-200.5 176,-221.5 301,-221.5 301,-200.5 176,-200.5"/>
<text text-anchor="middle" x="238.5" y="-207.9" font-family="Helvetica,sans-Serif" font-size="12.00">ICollection&lt; Fixture &gt;</text>
</a>
</g>
</g>
<!-- Node6&#45;&gt;Node4 -->
<g id="edge5" class="edge"><title>Node6&#45;&gt;Node4</title>
<path fill="none" stroke="midnightblue" d="M311.18,-213.628C350.445,-215.067 398.194,-216.818 433.703,-218.119"/>
<polygon fill="midnightblue" stroke="midnightblue" points="311.255,-210.128 301.133,-213.259 310.998,-217.124 311.255,-210.128"/>
</g>
<!-- Node7 -->
<g id="node7" class="node"><title>Node7</title>
<g id="a_node7"><a xlink:title=" ">
<polygon fill="none" stroke="#bfbfbf" points="192.5,-160.5 192.5,-181.5 284.5,-181.5 284.5,-160.5 192.5,-160.5"/>
<text text-anchor="middle" x="238.5" y="-167.9" font-family="Helvetica,sans-Serif" font-size="12.00">IList&lt; Fixture &gt;</text>
</a>
</g>
</g>
<!-- Node7&#45;&gt;Node4 -->
<g id="edge6" class="edge"><title>Node7&#45;&gt;Node4</title>
<path fill="none" stroke="midnightblue" d="M294.521,-181.982C336.245,-190.31 393.165,-201.67 433.895,-209.8"/>
<polygon fill="midnightblue" stroke="midnightblue" points="295.02,-178.512 284.528,-179.987 293.65,-185.377 295.02,-178.512"/>
</g>
<!-- Node8&#45;&gt;Node1 -->
<g id="edge7" class="edge"><title>Node8&#45;&gt;Node1</title>
<path fill="none" stroke="#9a32cd" stroke-dasharray="5,2" d="M530.814,-372.013C557.229,-366.554 590.245,-356.255 614,-337 632.924,-321.66 644.452,-294.526 649.674,-279.592"/>
<polygon fill="#9a32cd" stroke="#9a32cd" points="529.85,-368.634 520.681,-373.941 531.159,-375.51 529.85,-368.634"/>
<text text-anchor="middle" x="585" y="-368.4" font-family="Helvetica,sans-Serif" font-size="12.00"> _xf</text>
</g>
<!-- Node9 -->
<g id="node9" class="node"><title>Node9</title>
<g id="a_node9"><a xlink:href="structnkast_1_1_aether_1_1_physics2_d_1_1_common_1_1_complex.html" target="_top" xlink:title=" ">
<polygon fill="none" stroke="black" points="207,-381.5 207,-402.5 270,-402.5 270,-381.5 207,-381.5"/>
<text text-anchor="middle" x="238.5" y="-388.9" font-family="Helvetica,sans-Serif" font-size="12.00">Complex</text>
</a>
</g>
</g>
<!-- Node9&#45;&gt;Node8 -->
<g id="edge9" class="edge"><title>Node9&#45;&gt;Node8</title>
<path fill="none" stroke="#9a32cd" stroke-dasharray="5,2" d="M280.108,-389.684C327.965,-386.955 406.607,-382.47 451.26,-379.924"/>
<polygon fill="#9a32cd" stroke="#9a32cd" points="279.881,-386.191 270.096,-390.255 280.279,-393.18 279.881,-386.191"/>
<text text-anchor="middle" x="370.5" y="-390.4" font-family="Helvetica,sans-Serif" font-size="12.00"> q</text>
</g>
<!-- Node10 -->
<g id="node10" class="node"><title>Node10</title>
<g id="a_node10"><a xlink:href="classnkast_1_1_aether_1_1_physics2_d_1_1_dynamics_1_1_world.html" target="_top" xlink:title="The world class manages all physics entities, dynamic simulation, and asynchronous queries.">
<polygon fill="none" stroke="black" points="462.5,-80.5 462.5,-101.5 509.5,-101.5 509.5,-80.5 462.5,-80.5"/>
<text text-anchor="middle" x="486" y="-87.9" font-family="Helvetica,sans-Serif" font-size="12.00">World</text>
</a>
</g>
</g>
<!-- Node10&#45;&gt;Node1 -->
<g id="edge10" class="edge"><title>Node10&#45;&gt;Node1</title>
<path fill="none" stroke="#9a32cd" stroke-dasharray="5,2" d="M505.807,-108.591C531.239,-132.678 577.599,-177.66 614,-219 625.495,-232.055 637.657,-248.041 645.284,-258.367"/>
<polygon fill="#9a32cd" stroke="#9a32cd" points="508.002,-105.849 498.325,-101.536 503.199,-110.942 508.002,-105.849"/>
<text text-anchor="middle" x="585" y="-222.4" font-family="Helvetica,sans-Serif" font-size="12.00"> _world</text>
</g>
<!-- Node11 -->
<g id="node11" class="node"><title>Node11</title>
<g id="a_node11"><a xlink:href="classnkast_1_1_aether_1_1_physics2_d_1_1_dynamics_1_1_joint_collection.html" target="_top" xlink:title=" ">
<polygon fill="none" stroke="red" points="192,-120.5 192,-141.5 285,-141.5 285,-120.5 192,-120.5"/>
<text text-anchor="middle" x="238.5" y="-127.9" font-family="Helvetica,sans-Serif" font-size="12.00">JointCollection</text>
</a>
</g>
</g>
<!-- Node11&#45;&gt;Node10 -->
<g id="edge11" class="edge"><title>Node11&#45;&gt;Node10</title>
<path fill="none" stroke="#9a32cd" stroke-dasharray="5,2" d="M295.059,-125.374C329.941,-121.444 375.781,-115.551 416,-108 431.642,-105.063 449.04,-100.77 462.453,-97.2323"/>
<polygon fill="#9a32cd" stroke="#9a32cd" points="294.619,-121.902 285.065,-126.481 295.39,-128.859 294.619,-121.902"/>
<text text-anchor="middle" x="370.5" y="-125.4" font-family="Helvetica,sans-Serif" font-size="12.00"> JointList</text>
</g>
<!-- Node15 -->
<g id="node12" class="node"><title>Node15</title>
<g id="a_node12"><a xlink:href="classnkast_1_1_aether_1_1_physics2_d_1_1_dynamics_1_1_body_collection.html" target="_top" xlink:title=" ">
<polygon fill="none" stroke="red" points="191,-80.5 191,-101.5 286,-101.5 286,-80.5 191,-80.5"/>
<text text-anchor="middle" x="238.5" y="-87.9" font-family="Helvetica,sans-Serif" font-size="12.00">BodyCollection</text>
</a>
</g>
</g>
<!-- Node15&#45;&gt;Node10 -->
<g id="edge12" class="edge"><title>Node15&#45;&gt;Node10</title>
<path fill="none" stroke="#9a32cd" stroke-dasharray="5,2" d="M296.484,-91C349.256,-91 425.041,-91 462.408,-91"/>
<polygon fill="#9a32cd" stroke="#9a32cd" points="296.255,-87.5001 286.255,-91 296.254,-94.5001 296.255,-87.5001"/>
<text text-anchor="middle" x="370.5" y="-94.4" font-family="Helvetica,sans-Serif" font-size="12.00"> BodyList</text>
</g>
<!-- Node19 -->
<g id="node13" class="node"><title>Node19</title>
<g id="a_node13"><a xlink:href="classnkast_1_1_aether_1_1_physics2_d_1_1_dynamics_1_1_contact_manager.html" target="_top" xlink:title=" ">
<polygon fill="none" stroke="red" points="186.5,-40.5 186.5,-61.5 290.5,-61.5 290.5,-40.5 186.5,-40.5"/>
<text text-anchor="middle" x="238.5" y="-47.9" font-family="Helvetica,sans-Serif" font-size="12.00">ContactManager</text>
</a>
</g>
</g>
<!-- Node19&#45;&gt;Node10 -->
<g id="edge13" class="edge"><title>Node19&#45;&gt;Node10</title>
<path fill="none" stroke="#9a32cd" stroke-dasharray="5,2" d="M300.978,-57.2996C335.023,-61.2166 378.017,-66.8694 416,-74 431.642,-76.9365 449.04,-81.2302 462.453,-84.7677"/>
<polygon fill="#9a32cd" stroke="#9a32cd" points="301.045,-53.7849 290.715,-56.1399 300.259,-60.7407 301.045,-53.7849"/>
<text text-anchor="middle" x="370.5" y="-77.4" font-family="Helvetica,sans-Serif" font-size="12.00"> ContactManager</text>
</g>
<!-- Node27 -->
<g id="node14" class="node"><title>Node27</title>
<g id="a_node14"><a xlink:href="classnkast_1_1_aether_1_1_physics2_d_1_1_dynamics_1_1_controller_collection.html" target="_top" xlink:title=" ">
<polygon fill="none" stroke="red" points="179,-0.5 179,-21.5 298,-21.5 298,-0.5 179,-0.5"/>
<text text-anchor="middle" x="238.5" y="-7.9" font-family="Helvetica,sans-Serif" font-size="12.00">ControllerCollection</text>
</a>
</g>
</g>
<!-- Node27&#45;&gt;Node10 -->
<g id="edge14" class="edge"><title>Node27&#45;&gt;Node10</title>
<path fill="none" stroke="#9a32cd" stroke-dasharray="5,2" d="M308.203,-17.165C341.66,-21.8232 381.921,-29.9357 416,-44 437.705,-52.9575 459.571,-69.3994 472.702,-80.2662"/>
<polygon fill="#9a32cd" stroke="#9a32cd" points="308.424,-13.6639 298.052,-15.8274 307.509,-20.6039 308.424,-13.6639"/>
<text text-anchor="middle" x="370.5" y="-47.4" font-family="Helvetica,sans-Serif" font-size="12.00"> ControllerList</text>
</g>
<!-- Node31&#45;&gt;Node1 -->
<g id="edge15" class="edge"><title>Node31&#45;&gt;Node1</title>
<path fill="none" stroke="#9a32cd" stroke-dasharray="5,2" d="M522.789,-269C556.031,-269 604.41,-269 631.876,-269"/>
<polygon fill="#9a32cd" stroke="#9a32cd" points="522.574,-265.5 512.574,-269 522.574,-272.5 522.574,-265.5"/>
<text text-anchor="middle" x="585" y="-272.4" font-family="Helvetica,sans-Serif" font-size="12.00"> _sweep</text>
</g>
</g>
</svg>
