<?xml version="1.0" encoding="UTF-8" standalone="no"?>
<!DOCTYPE svg PUBLIC "-//W3C//DTD SVG 1.1//EN"
 "http://www.w3.org/Graphics/SVG/1.1/DTD/svg11.dtd">
<!-- Generated by graphviz version 2.38.0 (20140413.2041)
 -->
<!-- Title: DTSweepContext.DTSweepBasin Pages: 1 -->
<svg width="244pt" height="202pt"
 viewBox="0.00 0.00 243.50 202.00" xmlns="http://www.w3.org/2000/svg" xmlns:xlink="http://www.w3.org/1999/xlink">
<g id="graph0" class="graph" transform="scale(1 1) rotate(0) translate(4 198)">
<title>DTSweepContext.DTSweepBasin</title>
<!-- Node1 -->
<g id="node1" class="node"><title>Node1</title>
<g id="a_node1"><a xlink:title=" ">
<polygon fill="#bfbfbf" stroke="black" points="19.5,-0.5 19.5,-21.5 213.5,-21.5 213.5,-0.5 19.5,-0.5"/>
<text text-anchor="middle" x="116.5" y="-7.9" font-family="Helvetica,sans-Serif" font-size="12.00">DTSweepContext.DTSweepBasin</text>
</a>
</g>
</g>
<!-- Node2 -->
<g id="node2" class="node"><title>Node2</title>
<g id="a_node2"><a xlink:title=" ">
<polygon fill="none" stroke="#bfbfbf" points="53,-99.5 53,-120.5 180,-120.5 180,-99.5 53,-99.5"/>
<text text-anchor="middle" x="116.5" y="-106.9" font-family="Helvetica,sans-Serif" font-size="12.00">AdvancingFrontNode</text>
</a>
</g>
</g>
<!-- Node2&#45;&gt;Node1 -->
<g id="edge1" class="edge"><title>Node2&#45;&gt;Node1</title>
<path fill="none" stroke="#9a32cd" stroke-dasharray="5,2" d="M116.5,-89.1871C116.5,-68.6099 116.5,-37.2781 116.5,-21.6163"/>
<polygon fill="#9a32cd" stroke="#9a32cd" points="113,-89.3446 116.5,-99.3446 120,-89.3447 113,-89.3446"/>
<text text-anchor="middle" x="150.5" y="-69.4" font-family="Helvetica,sans-Serif" font-size="12.00"> bottomNode</text>
<text text-anchor="middle" x="150.5" y="-56.4" font-family="Helvetica,sans-Serif" font-size="12.00">leftNode</text>
<text text-anchor="middle" x="150.5" y="-43.4" font-family="Helvetica,sans-Serif" font-size="12.00">rightNode</text>
</g>
<!-- Node2&#45;&gt;Node2 -->
<g id="edge4" class="edge"><title>Node2&#45;&gt;Node2</title>
<path fill="none" stroke="#9a32cd" stroke-dasharray="5,2" d="M190.042,-114.857C194.994,-113.736 198,-112.117 198,-110 198,-106.695 190.674,-104.604 180.058,-103.726"/>
<polygon fill="#9a32cd" stroke="#9a32cd" points="189.467,-111.404 180.058,-116.274 190.451,-118.334 189.467,-111.404"/>
<text text-anchor="middle" x="211.5" y="-113.4" font-family="Helvetica,sans-Serif" font-size="12.00"> Next</text>
<text text-anchor="middle" x="211.5" y="-100.4" font-family="Helvetica,sans-Serif" font-size="12.00">Prev</text>
</g>
<!-- Node3 -->
<g id="node3" class="node"><title>Node3</title>
<g id="a_node3"><a xlink:title=" ">
<polygon fill="none" stroke="#bfbfbf" points="0,-172.5 0,-193.5 107,-193.5 107,-172.5 0,-172.5"/>
<text text-anchor="middle" x="53.5" y="-179.9" font-family="Helvetica,sans-Serif" font-size="12.00">DelaunayTriangle</text>
</a>
</g>
</g>
<!-- Node3&#45;&gt;Node2 -->
<g id="edge2" class="edge"><title>Node3&#45;&gt;Node2</title>
<path fill="none" stroke="#9a32cd" stroke-dasharray="5,2" d="M68.9254,-164.616C81.1227,-150.87 97.7128,-132.173 107.734,-120.879"/>
<polygon fill="#9a32cd" stroke="#9a32cd" points="66.0156,-162.622 61.9965,-172.425 71.2516,-167.268 66.0156,-162.622"/>
<text text-anchor="middle" x="112.5" y="-144.4" font-family="Helvetica,sans-Serif" font-size="12.00"> Triangle</text>
</g>
<!-- Node7 -->
<g id="node4" class="node"><title>Node7</title>
<g id="a_node4"><a xlink:title=" ">
<polygon fill="none" stroke="#bfbfbf" points="125.5,-172.5 125.5,-193.5 235.5,-193.5 235.5,-172.5 125.5,-172.5"/>
<text text-anchor="middle" x="180.5" y="-179.9" font-family="Helvetica,sans-Serif" font-size="12.00">TriangulationPoint</text>
</a>
</g>
</g>
<!-- Node7&#45;&gt;Node2 -->
<g id="edge3" class="edge"><title>Node7&#45;&gt;Node2</title>
<path fill="none" stroke="#9a32cd" stroke-dasharray="5,2" d="M164.83,-164.616C152.439,-150.87 135.585,-132.173 125.405,-120.879"/>
<polygon fill="#9a32cd" stroke="#9a32cd" points="162.574,-167.34 171.869,-172.425 167.773,-162.653 162.574,-167.34"/>
<text text-anchor="middle" x="170" y="-144.4" font-family="Helvetica,sans-Serif" font-size="12.00"> Point</text>
</g>
</g>
</svg>
