<?xml version="1.0" encoding="UTF-8" standalone="no"?>
<!DOCTYPE svg PUBLIC "-//W3C//DTD SVG 1.1//EN"
 "http://www.w3.org/Graphics/SVG/1.1/DTD/svg11.dtd">
<!-- Generated by graphviz version 2.38.0 (20140413.2041)
 -->
<!-- Title: ContactSolver Pages: 1 -->
<svg width="886pt" height="353pt"
 viewBox="0.00 0.00 886.00 353.00" xmlns="http://www.w3.org/2000/svg" xmlns:xlink="http://www.w3.org/1999/xlink">
<g id="graph0" class="graph" transform="scale(1 1) rotate(0) translate(4 349)">
<title>ContactSolver</title>
<!-- Node1 -->
<g id="node1" class="node"><title>Node1</title>
<g id="a_node1"><a xlink:title=" ">
<polygon fill="#bfbfbf" stroke="black" points="788,-126.5 788,-147.5 878,-147.5 878,-126.5 788,-126.5"/>
<text text-anchor="middle" x="833" y="-133.9" font-family="Helvetica,sans-Serif" font-size="12.00">ContactSolver</text>
</a>
</g>
</g>
<!-- Node2 -->
<g id="node2" class="node"><title>Node2</title>
<g id="a_node2"><a xlink:href="classnkast_1_1_aether_1_1_physics2_d_1_1_dynamics_1_1_contacts_1_1_contact_velocity_constraint.html" target="_top" xlink:title=" ">
<polygon fill="none" stroke="black" points="492,-238.5 492,-259.5 644,-259.5 644,-238.5 492,-238.5"/>
<text text-anchor="middle" x="568" y="-245.9" font-family="Helvetica,sans-Serif" font-size="12.00">ContactVelocityConstraint</text>
</a>
</g>
</g>
<!-- Node2&#45;&gt;Node1 -->
<g id="edge1" class="edge"><title>Node2&#45;&gt;Node1</title>
<path fill="none" stroke="#9a32cd" stroke-dasharray="5,2" d="M654.133,-238.951C691.472,-231.911 734.731,-220.019 770,-200 793.488,-186.668 813.985,-161.89 824.502,-147.706"/>
<polygon fill="#9a32cd" stroke="#9a32cd" points="653.497,-235.509 644.275,-240.724 654.736,-242.398 653.497,-235.509"/>
<text text-anchor="middle" x="716" y="-239.4" font-family="Helvetica,sans-Serif" font-size="12.00"> _velocityConstraints</text>
</g>
<!-- Node3 -->
<g id="node3" class="node"><title>Node3</title>
<g id="a_node3"><a xlink:href="structnkast_1_1_aether_1_1_physics2_d_1_1_common_1_1_vector2.html" target="_top" xlink:title=" ">
<polygon fill="none" stroke="red" points="0,-155.5 0,-176.5 58,-176.5 58,-155.5 0,-155.5"/>
<text text-anchor="middle" x="29" y="-162.9" font-family="Helvetica,sans-Serif" font-size="12.00">Vector2</text>
</a>
</g>
</g>
<!-- Node3&#45;&gt;Node2 -->
<g id="edge2" class="edge"><title>Node3&#45;&gt;Node2</title>
<path fill="none" stroke="#9a32cd" stroke-dasharray="5,2" d="M41.1465,-185.325C49.182,-197.28 61.1996,-211.695 76,-219 112.256,-236.896 363.559,-244.732 491.908,-247.598"/>
<polygon fill="#9a32cd" stroke="#9a32cd" points="44.0848,-183.423 35.7978,-176.821 38.1595,-187.15 44.0848,-183.423"/>
<text text-anchor="middle" x="234" y="-244.4" font-family="Helvetica,sans-Serif" font-size="12.00"> normal</text>
</g>
<!-- Node5 -->
<g id="node4" class="node"><title>Node5</title>
<g id="a_node4"><a xlink:href="structnkast_1_1_aether_1_1_physics2_d_1_1_common_1_1_mat22.html" target="_top" xlink:title="A 2&#45;by&#45;2 matrix. Stored in column&#45;major order.">
<polygon fill="none" stroke="black" points="209,-304.5 209,-325.5 259,-325.5 259,-304.5 209,-304.5"/>
<text text-anchor="middle" x="234" y="-311.9" font-family="Helvetica,sans-Serif" font-size="12.00">Mat22</text>
</a>
</g>
</g>
<!-- Node3&#45;&gt;Node5 -->
<g id="edge4" class="edge"><title>Node3&#45;&gt;Node5</title>
<path fill="none" stroke="#9a32cd" stroke-dasharray="5,2" d="M31.1631,-186.706C33.9672,-215.393 43.5161,-266.664 76,-293 114.056,-323.853 175.093,-322.437 208.755,-318.71"/>
<polygon fill="#9a32cd" stroke="#9a32cd" points="34.6405,-186.28 30.3651,-176.586 27.6622,-186.831 34.6405,-186.28"/>
<text text-anchor="middle" x="111.5" y="-335.4" font-family="Helvetica,sans-Serif" font-size="12.00"> ex</text>
<text text-anchor="middle" x="111.5" y="-322.4" font-family="Helvetica,sans-Serif" font-size="12.00">ey</text>
</g>
<!-- Node6 -->
<g id="node5" class="node"><title>Node6</title>
<g id="a_node5"><a xlink:href="classnkast_1_1_aether_1_1_physics2_d_1_1_dynamics_1_1_contacts_1_1_velocity_constraint_point.html" target="_top" xlink:title=" ">
<polygon fill="none" stroke="black" points="165,-264.5 165,-285.5 303,-285.5 303,-264.5 165,-264.5"/>
<text text-anchor="middle" x="234" y="-271.9" font-family="Helvetica,sans-Serif" font-size="12.00">VelocityConstraintPoint</text>
</a>
</g>
</g>
<!-- Node3&#45;&gt;Node6 -->
<g id="edge6" class="edge"><title>Node3&#45;&gt;Node6</title>
<path fill="none" stroke="#9a32cd" stroke-dasharray="5,2" d="M36.4816,-186.096C43.369,-204.129 56.0553,-229.868 76,-244 90.4517,-254.24 129.452,-261.969 164.964,-267.149"/>
<polygon fill="#9a32cd" stroke="#9a32cd" points="39.7253,-184.77 33.0854,-176.514 33.1275,-187.109 39.7253,-184.77"/>
<text text-anchor="middle" x="111.5" y="-279.4" font-family="Helvetica,sans-Serif" font-size="12.00"> rA</text>
<text text-anchor="middle" x="111.5" y="-266.4" font-family="Helvetica,sans-Serif" font-size="12.00">rB</text>
</g>
<!-- Node7 -->
<g id="node6" class="node"><title>Node7</title>
<g id="a_node6"><a xlink:href="classnkast_1_1_aether_1_1_physics2_d_1_1_dynamics_1_1_contacts_1_1_contact_position_constraint.html" target="_top" xlink:title=" ">
<polygon fill="none" stroke="black" points="321,-161.5 321,-182.5 474,-182.5 474,-161.5 321,-161.5"/>
<text text-anchor="middle" x="397.5" y="-168.9" font-family="Helvetica,sans-Serif" font-size="12.00">ContactPositionConstraint</text>
</a>
</g>
</g>
<!-- Node3&#45;&gt;Node7 -->
<g id="edge8" class="edge"><title>Node3&#45;&gt;Node7</title>
<path fill="none" stroke="#9a32cd" stroke-dasharray="5,2" d="M68.6664,-166.219C91.4642,-166.376 120.874,-166.627 147,-167 205.374,-167.834 271.423,-169.176 320.894,-170.259"/>
<polygon fill="#9a32cd" stroke="#9a32cd" points="68.3945,-162.717 58.3717,-166.151 68.3485,-169.717 68.3945,-162.717"/>
<text text-anchor="middle" x="111.5" y="-209.4" font-family="Helvetica,sans-Serif" font-size="12.00"> localCenterA</text>
<text text-anchor="middle" x="111.5" y="-196.4" font-family="Helvetica,sans-Serif" font-size="12.00">localNormal</text>
<text text-anchor="middle" x="111.5" y="-183.4" font-family="Helvetica,sans-Serif" font-size="12.00">localPoint</text>
<text text-anchor="middle" x="111.5" y="-170.4" font-family="Helvetica,sans-Serif" font-size="12.00">localPoints</text>
</g>
<!-- Node8 -->
<g id="node7" class="node"><title>Node8</title>
<g id="a_node7"><a xlink:title=" ">
<polygon fill="none" stroke="#bfbfbf" points="351.5,-123.5 351.5,-144.5 443.5,-144.5 443.5,-123.5 351.5,-123.5"/>
<text text-anchor="middle" x="397.5" y="-130.9" font-family="Helvetica,sans-Serif" font-size="12.00">SolverPosition</text>
</a>
</g>
</g>
<!-- Node3&#45;&gt;Node8 -->
<g id="edge10" class="edge"><title>Node3&#45;&gt;Node8</title>
<path fill="none" stroke="#9a32cd" stroke-dasharray="5,2" d="M64.0686,-152.104C68.041,-150.875 72.0759,-149.797 76,-149 172.622,-129.375 288.847,-129.717 351.378,-131.797"/>
<polygon fill="#9a32cd" stroke="#9a32cd" points="62.7557,-148.853 54.4212,-155.395 65.0157,-155.479 62.7557,-148.853"/>
<text text-anchor="middle" x="111.5" y="-152.4" font-family="Helvetica,sans-Serif" font-size="12.00"> c</text>
</g>
<!-- Node11 -->
<g id="node10" class="node"><title>Node11</title>
<g id="a_node10"><a xlink:href="structnkast_1_1_aether_1_1_physics2_d_1_1_collision_1_1_manifold.html" target="_top" xlink:title="A manifold for two touching convex Shapes. Box2D supports multiple types of contact:">
<polygon fill="none" stroke="red" points="203.5,-0.5 203.5,-21.5 264.5,-21.5 264.5,-0.5 203.5,-0.5"/>
<text text-anchor="middle" x="234" y="-7.9" font-family="Helvetica,sans-Serif" font-size="12.00">Manifold</text>
</a>
</g>
</g>
<!-- Node3&#45;&gt;Node11 -->
<g id="edge14" class="edge"><title>Node3&#45;&gt;Node11</title>
<path fill="none" stroke="#9a32cd" stroke-dasharray="5,2" d="M31.7439,-145.005C35.2158,-117.306 45.5296,-69.0312 76,-43 111.744,-12.4638 168.716,-8.29912 203.311,-8.99519"/>
<polygon fill="#9a32cd" stroke="#9a32cd" points="28.2401,-144.856 30.6637,-155.17 35.2009,-145.595 28.2401,-144.856"/>
<text text-anchor="middle" x="111.5" y="-59.4" font-family="Helvetica,sans-Serif" font-size="12.00"> LocalNormal</text>
<text text-anchor="middle" x="111.5" y="-46.4" font-family="Helvetica,sans-Serif" font-size="12.00">LocalPoint</text>
</g>
<!-- Node13 -->
<g id="node11" class="node"><title>Node13</title>
<g id="a_node11"><a xlink:title=" ">
<polygon fill="none" stroke="#bfbfbf" points="352,-80.5 352,-101.5 443,-101.5 443,-80.5 352,-80.5"/>
<text text-anchor="middle" x="397.5" y="-87.9" font-family="Helvetica,sans-Serif" font-size="12.00">SolverVelocity</text>
</a>
</g>
</g>
<!-- Node3&#45;&gt;Node13 -->
<g id="edge16" class="edge"><title>Node3&#45;&gt;Node13</title>
<path fill="none" stroke="#9a32cd" stroke-dasharray="5,2" d="M43.796,-147.389C52.0112,-137.789 63.2989,-126.885 76,-121 166.893,-78.8879 287.633,-81.041 351.86,-86.1171"/>
<polygon fill="#9a32cd" stroke="#9a32cd" points="40.9484,-145.345 37.4092,-155.331 46.4034,-149.732 40.9484,-145.345"/>
<text text-anchor="middle" x="111.5" y="-124.4" font-family="Helvetica,sans-Serif" font-size="12.00"> v</text>
</g>
<!-- Node5&#45;&gt;Node2 -->
<g id="edge3" class="edge"><title>Node5&#45;&gt;Node2</title>
<path fill="none" stroke="#9a32cd" stroke-dasharray="5,2" d="M269.309,-313.329C316.168,-310.454 402.525,-303.03 474,-285 498.678,-278.775 525.679,-267.829 544.199,-259.636"/>
<polygon fill="#9a32cd" stroke="#9a32cd" points="268.884,-309.848 259.104,-313.921 269.29,-316.836 268.884,-309.848"/>
<text text-anchor="middle" x="397.5" y="-325.4" font-family="Helvetica,sans-Serif" font-size="12.00"> K</text>
<text text-anchor="middle" x="397.5" y="-312.4" font-family="Helvetica,sans-Serif" font-size="12.00">normalMass</text>
</g>
<!-- Node6&#45;&gt;Node2 -->
<g id="edge5" class="edge"><title>Node6&#45;&gt;Node2</title>
<path fill="none" stroke="#9a32cd" stroke-dasharray="5,2" d="M313.586,-268.846C367.486,-264.625 438.59,-259.056 491.759,-254.892"/>
<polygon fill="#9a32cd" stroke="#9a32cd" points="313.084,-265.374 303.388,-269.644 313.631,-272.353 313.084,-265.374"/>
<text text-anchor="middle" x="397.5" y="-271.4" font-family="Helvetica,sans-Serif" font-size="12.00"> points</text>
</g>
<!-- Node7&#45;&gt;Node1 -->
<g id="edge7" class="edge"><title>Node7&#45;&gt;Node1</title>
<path fill="none" stroke="#9a32cd" stroke-dasharray="5,2" d="M484.638,-170.495C560.154,-168.32 672.751,-163.003 770,-150 775.778,-149.228 781.82,-148.218 787.771,-147.102"/>
<polygon fill="#9a32cd" stroke="#9a32cd" points="484.134,-167.008 474.234,-170.782 484.326,-174.005 484.134,-167.008"/>
<text text-anchor="middle" x="568" y="-173.4" font-family="Helvetica,sans-Serif" font-size="12.00"> _positionConstraints</text>
</g>
<!-- Node8&#45;&gt;Node1 -->
<g id="edge9" class="edge"><title>Node8&#45;&gt;Node1</title>
<path fill="none" stroke="#9a32cd" stroke-dasharray="5,2" d="M453.882,-134.383C541.013,-134.986 708.356,-136.144 787.907,-136.695"/>
<polygon fill="#9a32cd" stroke="#9a32cd" points="453.689,-130.882 443.665,-134.313 453.641,-137.882 453.689,-130.882"/>
<text text-anchor="middle" x="568" y="-138.4" font-family="Helvetica,sans-Serif" font-size="12.00"> _positions</text>
</g>
<!-- Node9 -->
<g id="node8" class="node"><title>Node9</title>
<g id="a_node8"><a xlink:href="classnkast_1_1_aether_1_1_physics2_d_1_1_dynamics_1_1_contacts_1_1_contact.html" target="_top" xlink:title="The class manages contact between two shapes. A contact exists for each overlapping AABB in the broad...">
<polygon fill="none" stroke="black" points="539.5,-30.5 539.5,-51.5 596.5,-51.5 596.5,-30.5 539.5,-30.5"/>
<text text-anchor="middle" x="568" y="-37.9" font-family="Helvetica,sans-Serif" font-size="12.00">Contact</text>
</a>
</g>
</g>
<!-- Node9&#45;&gt;Node1 -->
<g id="edge11" class="edge"><title>Node9&#45;&gt;Node1</title>
<path fill="none" stroke="#9a32cd" stroke-dasharray="5,2" d="M606.74,-36.4887C649.093,-33.2239 718.592,-33.3916 770,-61 797.903,-75.985 817.989,-109.315 826.887,-126.422"/>
<polygon fill="#9a32cd" stroke="#9a32cd" points="606.241,-33.0189 596.585,-37.3781 606.852,-39.9922 606.241,-33.0189"/>
<text text-anchor="middle" x="716" y="-64.4" font-family="Helvetica,sans-Serif" font-size="12.00"> _contacts</text>
</g>
<!-- Node10 -->
<g id="node9" class="node"><title>Node10</title>
<g id="a_node9"><a xlink:href="classnkast_1_1_aether_1_1_physics2_d_1_1_dynamics_1_1_contacts_1_1_contact_edge.html" target="_top" xlink:title="A contact edge is used to connect bodies and contacts together in a contact graph where each body is ...">
<polygon fill="none" stroke="black" points="191,-40.5 191,-61.5 277,-61.5 277,-40.5 191,-40.5"/>
<text text-anchor="middle" x="234" y="-47.9" font-family="Helvetica,sans-Serif" font-size="12.00">ContactEdge</text>
</a>
</g>
</g>
<!-- Node10&#45;&gt;Node9 -->
<g id="edge12" class="edge"><title>Node10&#45;&gt;Node9</title>
<path fill="none" stroke="#9a32cd" stroke-dasharray="5,2" d="M287.397,-46.8965C298.486,-46.1537 310.124,-45.4675 321,-45 400.161,-41.5974 493.765,-41.0257 539.317,-40.9688"/>
<polygon fill="#9a32cd" stroke="#9a32cd" points="287.138,-43.406 277.405,-47.5901 287.623,-50.3892 287.138,-43.406"/>
<text text-anchor="middle" x="397.5" y="-61.4" font-family="Helvetica,sans-Serif" font-size="12.00"> _nodeA</text>
<text text-anchor="middle" x="397.5" y="-48.4" font-family="Helvetica,sans-Serif" font-size="12.00">_nodeB</text>
</g>
<!-- Node11&#45;&gt;Node9 -->
<g id="edge13" class="edge"><title>Node11&#45;&gt;Node9</title>
<path fill="none" stroke="#9a32cd" stroke-dasharray="5,2" d="M274.697,-11.9672C322.214,-13.4382 404.132,-16.969 474,-25 496.135,-27.5443 520.999,-31.9009 539.445,-35.4262"/>
<polygon fill="#9a32cd" stroke="#9a32cd" points="274.625,-8.46365 264.527,-11.6677 274.419,-15.4606 274.625,-8.46365"/>
<text text-anchor="middle" x="397.5" y="-28.4" font-family="Helvetica,sans-Serif" font-size="12.00"> Manifold</text>
</g>
<!-- Node13&#45;&gt;Node1 -->
<g id="edge15" class="edge"><title>Node13&#45;&gt;Node1</title>
<path fill="none" stroke="#9a32cd" stroke-dasharray="5,2" d="M453.516,-96.819C503.271,-102.083 578.545,-110.052 644,-117 693.286,-122.231 749.838,-128.25 787.937,-132.307"/>
<polygon fill="#9a32cd" stroke="#9a32cd" points="453.611,-93.3097 443.299,-95.7381 452.875,-100.271 453.611,-93.3097"/>
<text text-anchor="middle" x="568" y="-120.4" font-family="Helvetica,sans-Serif" font-size="12.00"> _velocities</text>
</g>
</g>
</svg>
