<?xml version="1.0" encoding="UTF-8" standalone="no"?>
<!DOCTYPE svg PUBLIC "-//W3C//DTD SVG 1.1//EN"
 "http://www.w3.org/Graphics/SVG/1.1/DTD/svg11.dtd">
<!-- Generated by graphviz version 2.38.0 (20140413.2041)
 -->
<!-- Title: Joint Pages: 1 -->
<svg width="474pt" height="260pt"
 viewBox="0.00 0.00 474.00 260.00" xmlns="http://www.w3.org/2000/svg" xmlns:xlink="http://www.w3.org/1999/xlink">
<g id="graph0" class="graph" transform="scale(1 1) rotate(0) translate(4 256)">
<title>Joint</title>
<!-- Node1 -->
<g id="node1" class="node"><title>Node1</title>
<g id="a_node1"><a xlink:title=" ">
<polygon fill="#bfbfbf" stroke="black" points="166,-88.5 166,-109.5 207,-109.5 207,-88.5 166,-88.5"/>
<text text-anchor="middle" x="186.5" y="-95.9" font-family="Helvetica,sans-Serif" font-size="12.00">Joint</text>
</a>
</g>
</g>
<!-- Node25 -->
<g id="node7" class="node"><title>Node25</title>
<g id="a_node7"><a xlink:href="classnkast_1_1_aether_1_1_physics2_d_1_1_dynamics_1_1_joints_1_1_joint_edge.html" target="_top" xlink:title="A joint edge is used to connect bodies and joints together in a joint graph where each body is a node...">
<polygon fill="none" stroke="black" points="151.5,-2.5 151.5,-23.5 221.5,-23.5 221.5,-2.5 151.5,-2.5"/>
<text text-anchor="middle" x="186.5" y="-9.9" font-family="Helvetica,sans-Serif" font-size="12.00">JointEdge</text>
</a>
</g>
</g>
<!-- Node1&#45;&gt;Node25 -->
<g id="edge9" class="edge"><title>Node1&#45;&gt;Node25</title>
<path fill="none" stroke="#9a32cd" stroke-dasharray="5,2" d="M162.73,-81.5697C159.391,-78.1539 156.44,-74.275 154.5,-70 149.725,-59.4771 149.906,-54.6033 154.5,-44 158.072,-35.7546 165.15,-28.7366 171.743,-23.5662"/>
<polygon fill="#9a32cd" stroke="#9a32cd" points="160.586,-84.3434 170.421,-88.2817 165.188,-79.0694 160.586,-84.3434"/>
<text text-anchor="middle" x="168.5" y="-53.9" font-family="Helvetica,sans-Serif" font-size="12.00"> Joint</text>
</g>
<!-- Node2 -->
<g id="node2" class="node"><title>Node2</title>
<g id="a_node2"><a xlink:href="classnkast_1_1_aether_1_1_physics2_d_1_1_dynamics_1_1_world.html" target="_top" xlink:title="The world class manages all physics entities, dynamic simulation, and asynchronous queries.">
<polygon fill="none" stroke="black" points="194,-159.5 194,-180.5 241,-180.5 241,-159.5 194,-159.5"/>
<text text-anchor="middle" x="217.5" y="-166.9" font-family="Helvetica,sans-Serif" font-size="12.00">World</text>
</a>
</g>
</g>
<!-- Node2&#45;&gt;Node1 -->
<g id="edge1" class="edge"><title>Node2&#45;&gt;Node1</title>
<path fill="none" stroke="#9a32cd" stroke-dasharray="5,2" d="M196.171,-152.278C193.099,-148.883 190.354,-145.087 188.5,-141 183.966,-131.005 184.164,-118.199 185.04,-109.58"/>
<polygon fill="#9a32cd" stroke="#9a32cd" points="194.016,-155.059 203.673,-159.419 198.843,-149.989 194.016,-155.059"/>
<text text-anchor="middle" x="207.5" y="-131.4" font-family="Helvetica,sans-Serif" font-size="12.00"> _world</text>
</g>
<!-- Node26 -->
<g id="node8" class="node"><title>Node26</title>
<g id="a_node8"><a xlink:href="classnkast_1_1_aether_1_1_physics2_d_1_1_dynamics_1_1_body.html" target="_top" xlink:title=" ">
<polygon fill="none" stroke="red" points="226.5,-88.5 226.5,-109.5 270.5,-109.5 270.5,-88.5 226.5,-88.5"/>
<text text-anchor="middle" x="248.5" y="-95.9" font-family="Helvetica,sans-Serif" font-size="12.00">Body</text>
</a>
</g>
</g>
<!-- Node2&#45;&gt;Node26 -->
<g id="edge8" class="edge"><title>Node2&#45;&gt;Node26</title>
<path fill="none" stroke="#9a32cd" stroke-dasharray="5,2" d="M225.919,-150.261C231.842,-137.078 239.522,-119.983 244.226,-109.513"/>
<polygon fill="#9a32cd" stroke="#9a32cd" points="222.716,-148.85 221.81,-159.406 229.101,-151.719 222.716,-148.85"/>
<text text-anchor="middle" x="255.5" y="-131.4" font-family="Helvetica,sans-Serif" font-size="12.00"> _world</text>
</g>
<!-- Node3 -->
<g id="node3" class="node"><title>Node3</title>
<g id="a_node3"><a xlink:href="classnkast_1_1_aether_1_1_physics2_d_1_1_dynamics_1_1_joint_collection.html" target="_top" xlink:title=" ">
<polygon fill="none" stroke="red" points="0,-230.5 0,-251.5 93,-251.5 93,-230.5 0,-230.5"/>
<text text-anchor="middle" x="46.5" y="-237.9" font-family="Helvetica,sans-Serif" font-size="12.00">JointCollection</text>
</a>
</g>
</g>
<!-- Node3&#45;&gt;Node2 -->
<g id="edge2" class="edge"><title>Node3&#45;&gt;Node2</title>
<path fill="none" stroke="#9a32cd" stroke-dasharray="5,2" d="M74.1547,-225.716C90.8228,-217.385 112.61,-206.98 132.5,-199 152.832,-190.843 176.552,-183.177 193.761,-177.936"/>
<polygon fill="#9a32cd" stroke="#9a32cd" points="72.3332,-222.715 64.9853,-230.348 75.4893,-228.963 72.3332,-222.715"/>
<text text-anchor="middle" x="156" y="-202.4" font-family="Helvetica,sans-Serif" font-size="12.00"> JointList</text>
</g>
<!-- Node7 -->
<g id="node4" class="node"><title>Node7</title>
<g id="a_node4"><a xlink:href="classnkast_1_1_aether_1_1_physics2_d_1_1_dynamics_1_1_body_collection.html" target="_top" xlink:title=" ">
<polygon fill="none" stroke="red" points="111,-230.5 111,-251.5 206,-251.5 206,-230.5 111,-230.5"/>
<text text-anchor="middle" x="158.5" y="-237.9" font-family="Helvetica,sans-Serif" font-size="12.00">BodyCollection</text>
</a>
</g>
</g>
<!-- Node7&#45;&gt;Node2 -->
<g id="edge3" class="edge"><title>Node7&#45;&gt;Node2</title>
<path fill="none" stroke="#9a32cd" stroke-dasharray="5,2" d="M173.213,-222.794C184.641,-209.429 200.062,-191.394 209.366,-180.513"/>
<polygon fill="#9a32cd" stroke="#9a32cd" points="170.542,-220.531 166.704,-230.406 175.863,-225.08 170.542,-220.531"/>
<text text-anchor="middle" x="218" y="-202.4" font-family="Helvetica,sans-Serif" font-size="12.00"> BodyList</text>
</g>
<!-- Node11 -->
<g id="node5" class="node"><title>Node11</title>
<g id="a_node5"><a xlink:href="classnkast_1_1_aether_1_1_physics2_d_1_1_dynamics_1_1_contact_manager.html" target="_top" xlink:title=" ">
<polygon fill="none" stroke="red" points="224.5,-230.5 224.5,-251.5 328.5,-251.5 328.5,-230.5 224.5,-230.5"/>
<text text-anchor="middle" x="276.5" y="-237.9" font-family="Helvetica,sans-Serif" font-size="12.00">ContactManager</text>
</a>
</g>
</g>
<!-- Node11&#45;&gt;Node2 -->
<g id="edge4" class="edge"><title>Node11&#45;&gt;Node2</title>
<path fill="none" stroke="#9a32cd" stroke-dasharray="5,2" d="M264.128,-221.702C258.948,-214.422 252.697,-206.104 246.5,-199 240.887,-192.566 234.038,-185.905 228.405,-180.695"/>
<polygon fill="#9a32cd" stroke="#9a32cd" points="261.452,-223.985 270.033,-230.2 267.201,-219.991 261.452,-223.985"/>
<text text-anchor="middle" x="302" y="-202.4" font-family="Helvetica,sans-Serif" font-size="12.00"> ContactManager</text>
</g>
<!-- Node21 -->
<g id="node6" class="node"><title>Node21</title>
<g id="a_node6"><a xlink:href="classnkast_1_1_aether_1_1_physics2_d_1_1_dynamics_1_1_controller_collection.html" target="_top" xlink:title=" ">
<polygon fill="none" stroke="red" points="347,-230.5 347,-251.5 466,-251.5 466,-230.5 347,-230.5"/>
<text text-anchor="middle" x="406.5" y="-237.9" font-family="Helvetica,sans-Serif" font-size="12.00">ControllerCollection</text>
</a>
</g>
</g>
<!-- Node21&#45;&gt;Node2 -->
<g id="edge5" class="edge"><title>Node21&#45;&gt;Node2</title>
<path fill="none" stroke="#9a32cd" stroke-dasharray="5,2" d="M388.696,-223.583C378.504,-215.034 365.073,-205.115 351.5,-199 315.096,-182.599 268.764,-175.666 241.211,-172.837"/>
<polygon fill="#9a32cd" stroke="#9a32cd" points="386.591,-226.392 396.427,-230.329 391.194,-221.117 386.591,-226.392"/>
<text text-anchor="middle" x="410" y="-202.4" font-family="Helvetica,sans-Serif" font-size="12.00"> ControllerList</text>
</g>
<!-- Node25&#45;&gt;Node1 -->
<g id="edge6" class="edge"><title>Node25&#45;&gt;Node1</title>
<path fill="none" stroke="#9a32cd" stroke-dasharray="5,2" d="M186.5,-33.6144C186.5,-50.8078 186.5,-75.0724 186.5,-88.3641"/>
<polygon fill="#9a32cd" stroke="#9a32cd" points="190,-33.5235 186.5,-23.5235 183,-33.5235 190,-33.5235"/>
<text text-anchor="middle" x="206.5" y="-60.4" font-family="Helvetica,sans-Serif" font-size="12.00"> EdgeA</text>
<text text-anchor="middle" x="206.5" y="-47.4" font-family="Helvetica,sans-Serif" font-size="12.00">EdgeB</text>
</g>
<!-- Node25&#45;&gt;Node25 -->
<g id="edge10" class="edge"><title>Node25&#45;&gt;Node25</title>
<path fill="none" stroke="#9a32cd" stroke-dasharray="5,2" d="M231.735,-19.8356C236.467,-18.5012 239.5,-16.2227 239.5,-13 239.5,-7.84375 231.736,-5.10449 221.668,-4.78223"/>
<polygon fill="#9a32cd" stroke="#9a32cd" points="231.099,-16.3899 221.668,-21.2178 232.051,-23.3249 231.099,-16.3899"/>
<text text-anchor="middle" x="253" y="-16.4" font-family="Helvetica,sans-Serif" font-size="12.00"> Next</text>
<text text-anchor="middle" x="253" y="-3.4" font-family="Helvetica,sans-Serif" font-size="12.00">Prev</text>
</g>
<!-- Node26&#45;&gt;Node25 -->
<g id="edge7" class="edge"><title>Node26&#45;&gt;Node25</title>
<path fill="none" stroke="#9a32cd" stroke-dasharray="5,2" d="M243.844,-78.5298C240.552,-67.6055 235.313,-54.171 227.5,-44 221.16,-35.7462 211.954,-28.7275 203.871,-23.5589"/>
<polygon fill="#9a32cd" stroke="#9a32cd" points="240.524,-79.6613 246.509,-88.4035 247.282,-77.8369 240.524,-79.6613"/>
<text text-anchor="middle" x="257.5" y="-53.9" font-family="Helvetica,sans-Serif" font-size="12.00"> Other</text>
</g>
</g>
</svg>
