<?xml version="1.0" encoding="UTF-8" standalone="no"?>
<!DOCTYPE svg PUBLIC "-//W3C//DTD SVG 1.1//EN"
 "http://www.w3.org/Graphics/SVG/1.1/DTD/svg11.dtd">
<!-- Generated by graphviz version 2.38.0 (20140413.2041)
 -->
<!-- Title: TOIInput Pages: 1 -->
<svg width="209pt" height="211pt"
 viewBox="0.00 0.00 209.00 211.00" xmlns="http://www.w3.org/2000/svg" xmlns:xlink="http://www.w3.org/1999/xlink">
<g id="graph0" class="graph" transform="scale(1 1) rotate(0) translate(4 207)">
<title>TOIInput</title>
<!-- Node1 -->
<g id="node1" class="node"><title>Node1</title>
<g id="a_node1"><a xlink:title="Input parameters for CalculateTimeOfImpact">
<polygon fill="#bfbfbf" stroke="black" points="64.5,-0.5 64.5,-21.5 123.5,-21.5 123.5,-0.5 64.5,-0.5"/>
<text text-anchor="middle" x="94" y="-7.9" font-family="Helvetica,sans-Serif" font-size="12.00">TOIInput</text>
</a>
</g>
</g>
<!-- Node2 -->
<g id="node2" class="node"><title>Node2</title>
<g id="a_node2"><a xlink:href="structnkast_1_1_aether_1_1_physics2_d_1_1_collision_1_1_distance_proxy.html" target="_top" xlink:title="A distance proxy is used by the GJK algorithm. It encapsulates any shape.">
<polygon fill="none" stroke="black" points="0,-84.5 0,-105.5 92,-105.5 92,-84.5 0,-84.5"/>
<text text-anchor="middle" x="46" y="-91.9" font-family="Helvetica,sans-Serif" font-size="12.00">DistanceProxy</text>
</a>
</g>
</g>
<!-- Node2&#45;&gt;Node1 -->
<g id="edge1" class="edge"><title>Node2&#45;&gt;Node1</title>
<path fill="none" stroke="#9a32cd" stroke-dasharray="5,2" d="M50.4898,-74.5199C53.5275,-63.7844 58.2359,-50.5383 65,-40 69.4608,-33.0502 75.9707,-26.5583 81.693,-21.5787"/>
<polygon fill="#9a32cd" stroke="#9a32cd" points="47.0948,-73.6687 47.9947,-84.2253 53.8744,-75.4116 47.0948,-73.6687"/>
<text text-anchor="middle" x="85.5" y="-56.4" font-family="Helvetica,sans-Serif" font-size="12.00"> ProxyA</text>
<text text-anchor="middle" x="85.5" y="-43.4" font-family="Helvetica,sans-Serif" font-size="12.00">ProxyB</text>
</g>
<!-- Node3 -->
<g id="node3" class="node"><title>Node3</title>
<g id="a_node3"><a xlink:href="classnkast_1_1_aether_1_1_physics2_d_1_1_common_1_1_vertices.html" target="_top" xlink:title=" ">
<polygon fill="none" stroke="red" points="16,-181.5 16,-202.5 76,-202.5 76,-181.5 16,-181.5"/>
<text text-anchor="middle" x="46" y="-188.9" font-family="Helvetica,sans-Serif" font-size="12.00">Vertices</text>
</a>
</g>
</g>
<!-- Node3&#45;&gt;Node2 -->
<g id="edge2" class="edge"><title>Node3&#45;&gt;Node2</title>
<path fill="none" stroke="#9a32cd" stroke-dasharray="5,2" d="M46,-170.968C46,-150.897 46,-120.857 46,-105.614"/>
<polygon fill="#9a32cd" stroke="#9a32cd" points="42.5001,-171.191 46,-181.191 49.5001,-171.191 42.5001,-171.191"/>
<text text-anchor="middle" x="69.5" y="-140.4" font-family="Helvetica,sans-Serif" font-size="12.00"> Vertices</text>
</g>
<!-- Node5 -->
<g id="node4" class="node"><title>Node5</title>
<g id="a_node4"><a xlink:href="structnkast_1_1_aether_1_1_physics2_d_1_1_common_1_1_sweep.html" target="_top" xlink:title="This describes the motion of a body/shape for TOI computation. Shapes are defined with respect to the...">
<polygon fill="none" stroke="black" points="110.5,-84.5 110.5,-105.5 163.5,-105.5 163.5,-84.5 110.5,-84.5"/>
<text text-anchor="middle" x="137" y="-91.9" font-family="Helvetica,sans-Serif" font-size="12.00">Sweep</text>
</a>
</g>
</g>
<!-- Node5&#45;&gt;Node1 -->
<g id="edge3" class="edge"><title>Node5&#45;&gt;Node1</title>
<path fill="none" stroke="#9a32cd" stroke-dasharray="5,2" d="M127.251,-75.4095C118.504,-58.7277 106.009,-34.9015 99.0949,-21.7158"/>
<polygon fill="#9a32cd" stroke="#9a32cd" points="124.155,-77.0408 131.898,-84.2715 130.354,-73.7898 124.155,-77.0408"/>
<text text-anchor="middle" x="146.5" y="-56.4" font-family="Helvetica,sans-Serif" font-size="12.00"> SweepA</text>
<text text-anchor="middle" x="146.5" y="-43.4" font-family="Helvetica,sans-Serif" font-size="12.00">SweepB</text>
</g>
<!-- Node6 -->
<g id="node5" class="node"><title>Node6</title>
<g id="a_node5"><a xlink:href="structnkast_1_1_aether_1_1_physics2_d_1_1_common_1_1_vector2.html" target="_top" xlink:title=" ">
<polygon fill="none" stroke="red" points="108,-181.5 108,-202.5 166,-202.5 166,-181.5 108,-181.5"/>
<text text-anchor="middle" x="137" y="-188.9" font-family="Helvetica,sans-Serif" font-size="12.00">Vector2</text>
</a>
</g>
</g>
<!-- Node6&#45;&gt;Node5 -->
<g id="edge4" class="edge"><title>Node6&#45;&gt;Node5</title>
<path fill="none" stroke="#9a32cd" stroke-dasharray="5,2" d="M137,-170.968C137,-150.897 137,-120.857 137,-105.614"/>
<polygon fill="#9a32cd" stroke="#9a32cd" points="133.5,-171.191 137,-181.191 140.5,-171.191 133.5,-171.191"/>
<text text-anchor="middle" x="169" y="-153.4" font-family="Helvetica,sans-Serif" font-size="12.00"> C</text>
<text text-anchor="middle" x="169" y="-140.4" font-family="Helvetica,sans-Serif" font-size="12.00">C0</text>
<text text-anchor="middle" x="169" y="-127.4" font-family="Helvetica,sans-Serif" font-size="12.00">LocalCenter</text>
</g>
</g>
</svg>
