<?xml version="1.0" encoding="UTF-8" standalone="no"?>
<!DOCTYPE svg PUBLIC "-//W3C//DTD SVG 1.1//EN"
 "http://www.w3.org/Graphics/SVG/1.1/DTD/svg11.dtd">
<!-- Generated by graphviz version 2.38.0 (20140413.2041)
 -->
<!-- Title: JointEdge Pages: 1 -->
<svg width="463pt" height="361pt"
 viewBox="0.00 0.00 462.50 361.00" xmlns="http://www.w3.org/2000/svg" xmlns:xlink="http://www.w3.org/1999/xlink">
<g id="graph0" class="graph" transform="scale(1 1) rotate(0) translate(4 357)">
<title>JointEdge</title>
<!-- Node1 -->
<g id="node1" class="node"><title>Node1</title>
<g id="a_node1"><a xlink:title="A joint edge is used to connect bodies and joints together in a joint graph where each body is a node...">
<polygon fill="#bfbfbf" stroke="black" points="60.5,-86.5 60.5,-107.5 130.5,-107.5 130.5,-86.5 60.5,-86.5"/>
<text text-anchor="middle" x="95.5" y="-93.9" font-family="Helvetica,sans-Serif" font-size="12.00">JointEdge</text>
</a>
</g>
</g>
<!-- Node1&#45;&gt;Node1 -->
<g id="edge12" class="edge"><title>Node1&#45;&gt;Node1</title>
<path fill="none" stroke="#9a32cd" stroke-dasharray="5,2" d="M140.735,-102.593C145.467,-101.501 148.5,-99.6367 148.5,-97 148.5,-92.7813 140.736,-90.54 130.668,-90.2764"/>
<polygon fill="#9a32cd" stroke="#9a32cd" points="140.215,-99.1291 130.668,-103.724 140.996,-106.085 140.215,-99.1291"/>
<text text-anchor="middle" x="162" y="-100.4" font-family="Helvetica,sans-Serif" font-size="12.00"> Next</text>
<text text-anchor="middle" x="162" y="-87.4" font-family="Helvetica,sans-Serif" font-size="12.00">Prev</text>
</g>
<!-- Node33 -->
<g id="node8" class="node"><title>Node33</title>
<g id="a_node8"><a xlink:href="classnkast_1_1_aether_1_1_physics2_d_1_1_dynamics_1_1_joints_1_1_joint.html" target="_top" xlink:title=" ">
<polygon fill="none" stroke="black" points="24,-0.5 24,-21.5 65,-21.5 65,-0.5 24,-0.5"/>
<text text-anchor="middle" x="44.5" y="-7.9" font-family="Helvetica,sans-Serif" font-size="12.00">Joint</text>
</a>
</g>
</g>
<!-- Node1&#45;&gt;Node33 -->
<g id="edge11" class="edge"><title>Node1&#45;&gt;Node33</title>
<path fill="none" stroke="#9a32cd" stroke-dasharray="5,2" d="M90.1382,-76.5575C86.4947,-65.3013 80.9716,-51.192 73.5,-40 68.9148,-33.1317 62.3952,-26.6461 56.6986,-21.6497"/>
<polygon fill="#9a32cd" stroke="#9a32cd" points="86.8312,-77.7148 93.0578,-86.2868 93.5358,-75.7028 86.8312,-77.7148"/>
<text text-anchor="middle" x="106.5" y="-56.4" font-family="Helvetica,sans-Serif" font-size="12.00"> EdgeA</text>
<text text-anchor="middle" x="106.5" y="-43.4" font-family="Helvetica,sans-Serif" font-size="12.00">EdgeB</text>
</g>
<!-- Node2 -->
<g id="node2" class="node"><title>Node2</title>
<g id="a_node2"><a xlink:href="classnkast_1_1_aether_1_1_physics2_d_1_1_dynamics_1_1_body.html" target="_top" xlink:title=" ">
<polygon fill="none" stroke="black" points="139.5,-159.5 139.5,-180.5 183.5,-180.5 183.5,-159.5 139.5,-159.5"/>
<text text-anchor="middle" x="161.5" y="-166.9" font-family="Helvetica,sans-Serif" font-size="12.00">Body</text>
</a>
</g>
</g>
<!-- Node2&#45;&gt;Node1 -->
<g id="edge1" class="edge"><title>Node2&#45;&gt;Node1</title>
<path fill="none" stroke="#9a32cd" stroke-dasharray="5,2" d="M145.701,-152.004C132.89,-138.223 115.281,-119.279 104.684,-107.879"/>
<polygon fill="#9a32cd" stroke="#9a32cd" points="143.227,-154.483 152.599,-159.425 148.354,-149.717 143.227,-154.483"/>
<text text-anchor="middle" x="150.5" y="-131.4" font-family="Helvetica,sans-Serif" font-size="12.00"> Other</text>
</g>
<!-- Node3 -->
<g id="node3" class="node"><title>Node3</title>
<g id="a_node3"><a xlink:href="structnkast_1_1_aether_1_1_physics2_d_1_1_common_1_1_vector2.html" target="_top" xlink:title=" ">
<polygon fill="none" stroke="red" points="197.5,-331.5 197.5,-352.5 255.5,-352.5 255.5,-331.5 197.5,-331.5"/>
<text text-anchor="middle" x="226.5" y="-338.9" font-family="Helvetica,sans-Serif" font-size="12.00">Vector2</text>
</a>
</g>
</g>
<!-- Node3&#45;&gt;Node2 -->
<g id="edge2" class="edge"><title>Node3&#45;&gt;Node2</title>
<path fill="none" stroke="#9a32cd" stroke-dasharray="5,2" d="M191.373,-327.295C162.459,-313.91 123.419,-290.487 105.5,-256 90.5078,-227.147 125.997,-195.859 147.145,-180.542"/>
<polygon fill="#9a32cd" stroke="#9a32cd" points="190.185,-330.597 200.746,-331.451 193.023,-324.198 190.185,-330.597"/>
<text text-anchor="middle" x="144" y="-246.4" font-family="Helvetica,sans-Serif" font-size="12.00"> _force</text>
<text text-anchor="middle" x="144" y="-233.4" font-family="Helvetica,sans-Serif" font-size="12.00">_linearVelocity</text>
</g>
<!-- Node9 -->
<g id="node5" class="node"><title>Node9</title>
<g id="a_node5"><a xlink:href="structnkast_1_1_aether_1_1_physics2_d_1_1_common_1_1_transform.html" target="_top" xlink:title="A transform contains translation and rotation. It is used to represent the position and orientation o...">
<polygon fill="none" stroke="red" points="192,-232.5 192,-253.5 261,-253.5 261,-232.5 192,-232.5"/>
<text text-anchor="middle" x="226.5" y="-239.9" font-family="Helvetica,sans-Serif" font-size="12.00">Transform</text>
</a>
</g>
</g>
<!-- Node3&#45;&gt;Node9 -->
<g id="edge5" class="edge"><title>Node3&#45;&gt;Node9</title>
<path fill="none" stroke="#9a32cd" stroke-dasharray="5,2" d="M226.5,-321.187C226.5,-300.61 226.5,-269.278 226.5,-253.616"/>
<polygon fill="#9a32cd" stroke="#9a32cd" points="223,-321.345 226.5,-331.345 230,-321.345 223,-321.345"/>
<text text-anchor="middle" x="231.5" y="-290.4" font-family="Helvetica,sans-Serif" font-size="12.00"> p</text>
</g>
<!-- Node32 -->
<g id="node7" class="node"><title>Node32</title>
<g id="a_node7"><a xlink:href="structnkast_1_1_aether_1_1_physics2_d_1_1_common_1_1_sweep.html" target="_top" xlink:title="This describes the motion of a body/shape for TOI computation. Shapes are defined with respect to the...">
<polygon fill="none" stroke="black" points="279,-232.5 279,-253.5 332,-253.5 332,-232.5 279,-232.5"/>
<text text-anchor="middle" x="305.5" y="-239.9" font-family="Helvetica,sans-Serif" font-size="12.00">Sweep</text>
</a>
</g>
</g>
<!-- Node3&#45;&gt;Node32 -->
<g id="edge8" class="edge"><title>Node3&#45;&gt;Node32</title>
<path fill="none" stroke="#9a32cd" stroke-dasharray="5,2" d="M240.811,-323.428C257.487,-302.952 284.44,-269.858 297.668,-253.616"/>
<polygon fill="#9a32cd" stroke="#9a32cd" points="237.965,-321.381 234.364,-331.345 243.392,-325.801 237.965,-321.381"/>
<text text-anchor="middle" x="311.5" y="-303.4" font-family="Helvetica,sans-Serif" font-size="12.00"> C</text>
<text text-anchor="middle" x="311.5" y="-290.4" font-family="Helvetica,sans-Serif" font-size="12.00">C0</text>
<text text-anchor="middle" x="311.5" y="-277.4" font-family="Helvetica,sans-Serif" font-size="12.00">LocalCenter</text>
</g>
<!-- Node5 -->
<g id="node4" class="node"><title>Node5</title>
<g id="a_node4"><a xlink:href="classnkast_1_1_aether_1_1_physics2_d_1_1_dynamics_1_1_fixture_collection.html" target="_top" xlink:title=" ">
<polygon fill="none" stroke="red" points="350.5,-232.5 350.5,-253.5 454.5,-253.5 454.5,-232.5 350.5,-232.5"/>
<text text-anchor="middle" x="402.5" y="-239.9" font-family="Helvetica,sans-Serif" font-size="12.00">FixtureCollection</text>
</a>
</g>
</g>
<!-- Node5&#45;&gt;Node2 -->
<g id="edge3" class="edge"><title>Node5&#45;&gt;Node2</title>
<path fill="none" stroke="#9a32cd" stroke-dasharray="5,2" d="M372.861,-228.291C351.888,-219.01 322.91,-207.024 296.5,-199 257.565,-187.172 210.809,-178.705 183.788,-174.352"/>
<polygon fill="#9a32cd" stroke="#9a32cd" points="371.624,-231.572 382.181,-232.47 374.488,-225.185 371.624,-231.572"/>
<text text-anchor="middle" x="360.5" y="-202.4" font-family="Helvetica,sans-Serif" font-size="12.00"> FixtureList</text>
</g>
<!-- Node9&#45;&gt;Node2 -->
<g id="edge4" class="edge"><title>Node9&#45;&gt;Node2</title>
<path fill="none" stroke="#9a32cd" stroke-dasharray="5,2" d="M210.94,-225.004C198.324,-211.223 180.981,-192.279 170.544,-180.879"/>
<polygon fill="#9a32cd" stroke="#9a32cd" points="208.4,-227.412 217.734,-232.425 213.563,-222.685 208.4,-227.412"/>
<text text-anchor="middle" x="208" y="-202.4" font-family="Helvetica,sans-Serif" font-size="12.00"> _xf</text>
</g>
<!-- Node11 -->
<g id="node6" class="node"><title>Node11</title>
<g id="a_node6"><a xlink:href="classnkast_1_1_aether_1_1_physics2_d_1_1_dynamics_1_1_world.html" target="_top" xlink:title="The world class manages all physics entities, dynamic simulation, and asynchronous queries.">
<polygon fill="none" stroke="red" points="0,-232.5 0,-253.5 47,-253.5 47,-232.5 0,-232.5"/>
<text text-anchor="middle" x="23.5" y="-239.9" font-family="Helvetica,sans-Serif" font-size="12.00">World</text>
</a>
</g>
</g>
<!-- Node11&#45;&gt;Node2 -->
<g id="edge6" class="edge"><title>Node11&#45;&gt;Node2</title>
<path fill="none" stroke="#9a32cd" stroke-dasharray="5,2" d="M28.7951,-222.712C32.0353,-214.288 37.034,-204.985 44.5,-199 71.8786,-177.054 113.711,-171.854 139.235,-170.871"/>
<polygon fill="#9a32cd" stroke="#9a32cd" points="25.4511,-221.677 25.6671,-232.27 32.1039,-223.854 25.4511,-221.677"/>
<text text-anchor="middle" x="63.5" y="-202.4" font-family="Helvetica,sans-Serif" font-size="12.00"> _world</text>
</g>
<!-- Node11&#45;&gt;Node33 -->
<g id="edge10" class="edge"><title>Node11&#45;&gt;Node33</title>
<path fill="none" stroke="#9a32cd" stroke-dasharray="5,2" d="M23.3768,-221.99C23.4641,-185.524 25.0956,-105.929 36.5,-40 37.5685,-33.8228 39.4789,-27.0604 41.1648,-21.729"/>
<polygon fill="#9a32cd" stroke="#9a32cd" points="19.8771,-222.248 23.3923,-232.242 26.8771,-222.237 19.8771,-222.248"/>
<text text-anchor="middle" x="45.5" y="-131.4" font-family="Helvetica,sans-Serif" font-size="12.00"> _world</text>
</g>
<!-- Node32&#45;&gt;Node2 -->
<g id="edge7" class="edge"><title>Node32&#45;&gt;Node2</title>
<path fill="none" stroke="#9a32cd" stroke-dasharray="5,2" d="M278.226,-227.72C261.854,-219.227 240.569,-208.326 221.5,-199 208.592,-192.687 193.985,-185.863 182.415,-180.533"/>
<polygon fill="#9a32cd" stroke="#9a32cd" points="276.758,-230.901 287.244,-232.412 279.988,-224.691 276.758,-230.901"/>
<text text-anchor="middle" x="270" y="-202.4" font-family="Helvetica,sans-Serif" font-size="12.00"> _sweep</text>
</g>
<!-- Node33&#45;&gt;Node1 -->
<g id="edge9" class="edge"><title>Node33&#45;&gt;Node1</title>
<path fill="none" stroke="#9a32cd" stroke-dasharray="5,2" d="M40.4399,-31.677C39.2485,-42.496 39.576,-55.7594 45.5,-66 50.7718,-75.1131 60.0122,-81.773 69.1267,-86.4689"/>
<polygon fill="#9a32cd" stroke="#9a32cd" points="43.9416,-31.9429 42.0604,-21.5164 37.029,-30.8403 43.9416,-31.9429"/>
<text text-anchor="middle" x="59.5" y="-49.9" font-family="Helvetica,sans-Serif" font-size="12.00"> Joint</text>
</g>
</g>
</svg>
