<?xml version="1.0" encoding="UTF-8" standalone="no"?>
<!DOCTYPE svg PUBLIC "-//W3C//DTD SVG 1.1//EN"
 "http://www.w3.org/Graphics/SVG/1.1/DTD/svg11.dtd">
<!-- Generated by graphviz version 2.38.0 (20140413.2041)
 -->
<!-- Title: Contact Pages: 1 -->
<svg width="301pt" height="211pt"
 viewBox="0.00 0.00 301.00 211.00" xmlns="http://www.w3.org/2000/svg" xmlns:xlink="http://www.w3.org/1999/xlink">
<g id="graph0" class="graph" transform="scale(1 1) rotate(0) translate(4 207)">
<title>Contact</title>
<!-- Node1 -->
<g id="node1" class="node"><title>Node1</title>
<g id="a_node1"><a xlink:title="The class manages contact between two shapes. A contact exists for each overlapping AABB in the broad...">
<polygon fill="#bfbfbf" stroke="black" points="97.5,-0.5 97.5,-21.5 154.5,-21.5 154.5,-0.5 97.5,-0.5"/>
<text text-anchor="middle" x="126" y="-7.9" font-family="Helvetica,sans-Serif" font-size="12.00">Contact</text>
</a>
</g>
</g>
<!-- Node2 -->
<g id="node2" class="node"><title>Node2</title>
<g id="a_node2"><a xlink:href="classnkast_1_1_aether_1_1_physics2_d_1_1_dynamics_1_1_contacts_1_1_contact_edge.html" target="_top" xlink:title="A contact edge is used to connect bodies and contacts together in a contact graph where each body is ...">
<polygon fill="none" stroke="black" points="43,-84.5 43,-105.5 129,-105.5 129,-84.5 43,-84.5"/>
<text text-anchor="middle" x="86" y="-91.9" font-family="Helvetica,sans-Serif" font-size="12.00">ContactEdge</text>
</a>
</g>
</g>
<!-- Node2&#45;&gt;Node1 -->
<g id="edge1" class="edge"><title>Node2&#45;&gt;Node1</title>
<path fill="none" stroke="#9a32cd" stroke-dasharray="5,2" d="M88.1879,-74.2728C89.9838,-63.6247 93.2174,-50.5415 99,-40 102.832,-33.0136 108.868,-26.5188 114.262,-21.5468"/>
<polygon fill="#9a32cd" stroke="#9a32cd" points="84.7073,-73.8912 86.7904,-84.2792 91.6401,-74.8595 84.7073,-73.8912"/>
<text text-anchor="middle" x="121.5" y="-56.4" font-family="Helvetica,sans-Serif" font-size="12.00"> _nodeA</text>
<text text-anchor="middle" x="121.5" y="-43.4" font-family="Helvetica,sans-Serif" font-size="12.00">_nodeB</text>
</g>
<!-- Node3 -->
<g id="node3" class="node"><title>Node3</title>
<g id="a_node3"><a xlink:href="structnkast_1_1_aether_1_1_physics2_d_1_1_collision_1_1_manifold.html" target="_top" xlink:title="A manifold for two touching convex Shapes. Box2D supports multiple types of contact:">
<polygon fill="none" stroke="black" points="147.5,-84.5 147.5,-105.5 208.5,-105.5 208.5,-84.5 147.5,-84.5"/>
<text text-anchor="middle" x="178" y="-91.9" font-family="Helvetica,sans-Serif" font-size="12.00">Manifold</text>
</a>
</g>
</g>
<!-- Node3&#45;&gt;Node1 -->
<g id="edge2" class="edge"><title>Node3&#45;&gt;Node1</title>
<path fill="none" stroke="#9a32cd" stroke-dasharray="5,2" d="M166.569,-75.7496C159.992,-65.2732 151.558,-51.8796 144,-40 140.091,-33.8565 135.67,-26.9776 132.187,-21.5754"/>
<polygon fill="#9a32cd" stroke="#9a32cd" points="163.73,-77.8111 172.008,-84.4234 169.66,-74.092 163.73,-77.8111"/>
<text text-anchor="middle" x="184" y="-49.9" font-family="Helvetica,sans-Serif" font-size="12.00"> Manifold</text>
</g>
<!-- Node4 -->
<g id="node4" class="node"><title>Node4</title>
<g id="a_node4"><a xlink:href="structnkast_1_1_aether_1_1_physics2_d_1_1_common_1_1_fixed_array2.html" target="_top" xlink:title=" ">
<polygon fill="none" stroke="black" points="0,-168.5 0,-202.5 206,-202.5 206,-168.5 0,-168.5"/>
<text text-anchor="start" x="8" y="-188.9" font-family="Helvetica,sans-Serif" font-size="12.00">FixedArray2&lt; nkast.Aether.Physics2</text>
<text text-anchor="middle" x="103" y="-175.9" font-family="Helvetica,sans-Serif" font-size="12.00">D.Collision.ManifoldPoint &gt;</text>
</a>
</g>
</g>
<!-- Node4&#45;&gt;Node3 -->
<g id="edge3" class="edge"><title>Node4&#45;&gt;Node3</title>
<path fill="none" stroke="#9a32cd" stroke-dasharray="5,2" d="M123.397,-160.431C138.701,-142.373 158.84,-118.609 169.885,-105.576"/>
<polygon fill="#9a32cd" stroke="#9a32cd" points="120.551,-158.376 116.756,-168.268 125.892,-162.902 120.551,-158.376"/>
<text text-anchor="middle" x="172.5" y="-133.9" font-family="Helvetica,sans-Serif" font-size="12.00"> Points</text>
</g>
<!-- Node5 -->
<g id="node5" class="node"><title>Node5</title>
<g id="a_node5"><a xlink:href="structnkast_1_1_aether_1_1_physics2_d_1_1_common_1_1_vector2.html" target="_top" xlink:title=" ">
<polygon fill="none" stroke="red" points="224,-175 224,-196 282,-196 282,-175 224,-175"/>
<text text-anchor="middle" x="253" y="-182.4" font-family="Helvetica,sans-Serif" font-size="12.00">Vector2</text>
</a>
</g>
</g>
<!-- Node5&#45;&gt;Node3 -->
<g id="edge4" class="edge"><title>Node5&#45;&gt;Node3</title>
<path fill="none" stroke="#9a32cd" stroke-dasharray="5,2" d="M238.179,-167.011C222.572,-148.595 198.573,-120.276 186.122,-105.584"/>
<polygon fill="#9a32cd" stroke="#9a32cd" points="235.552,-169.325 244.687,-174.691 240.892,-164.799 235.552,-169.325"/>
<text text-anchor="middle" x="258" y="-140.4" font-family="Helvetica,sans-Serif" font-size="12.00"> LocalNormal</text>
<text text-anchor="middle" x="258" y="-127.4" font-family="Helvetica,sans-Serif" font-size="12.00">LocalPoint</text>
</g>
</g>
</svg>
