<?xml version="1.0" encoding="UTF-8" standalone="no"?>
<!DOCTYPE svg PUBLIC "-//W3C//DTD SVG 1.1//EN"
 "http://www.w3.org/Graphics/SVG/1.1/DTD/svg11.dtd">
<!-- Generated by graphviz version 2.38.0 (20140413.2041)
 -->
<!-- Title: DistanceInput Pages: 1 -->
<svg width="252pt" height="185pt"
 viewBox="0.00 0.00 252.00 185.00" xmlns="http://www.w3.org/2000/svg" xmlns:xlink="http://www.w3.org/1999/xlink">
<g id="graph0" class="graph" transform="scale(1 1) rotate(0) translate(4 181)">
<title>DistanceInput</title>
<!-- Node1 -->
<g id="node1" class="node"><title>Node1</title>
<g id="a_node1"><a xlink:title="Input for Distance.ComputeDistance(). You have to option to use the shape radii in the computation.">
<polygon fill="#bfbfbf" stroke="black" points="105.5,-0.5 105.5,-21.5 192.5,-21.5 192.5,-0.5 105.5,-0.5"/>
<text text-anchor="middle" x="149" y="-7.9" font-family="Helvetica,sans-Serif" font-size="12.00">DistanceInput</text>
</a>
</g>
</g>
<!-- Node2 -->
<g id="node2" class="node"><title>Node2</title>
<g id="a_node2"><a xlink:href="structnkast_1_1_aether_1_1_physics2_d_1_1_common_1_1_transform.html" target="_top" xlink:title="A transform contains translation and rotation. It is used to represent the position and orientation o...">
<polygon fill="none" stroke="black" points="63.5,-84.5 63.5,-105.5 132.5,-105.5 132.5,-84.5 63.5,-84.5"/>
<text text-anchor="middle" x="98" y="-91.9" font-family="Helvetica,sans-Serif" font-size="12.00">Transform</text>
</a>
</g>
</g>
<!-- Node2&#45;&gt;Node1 -->
<g id="edge1" class="edge"><title>Node2&#45;&gt;Node1</title>
<path fill="none" stroke="#9a32cd" stroke-dasharray="5,2" d="M96.1676,-74.19C96.1056,-63.3291 97.6537,-50.0682 104,-40 109.005,-32.0603 117.165,-26.0025 125.172,-21.5873"/>
<polygon fill="#9a32cd" stroke="#9a32cd" points="92.6834,-74.5934 96.6814,-84.4049 99.6745,-74.2417 92.6834,-74.5934"/>
<text text-anchor="middle" x="136" y="-56.4" font-family="Helvetica,sans-Serif" font-size="12.00"> TransformA</text>
<text text-anchor="middle" x="136" y="-43.4" font-family="Helvetica,sans-Serif" font-size="12.00">TransformB</text>
</g>
<!-- Node3 -->
<g id="node3" class="node"><title>Node3</title>
<g id="a_node3"><a xlink:href="structnkast_1_1_aether_1_1_physics2_d_1_1_common_1_1_vector2.html" target="_top" xlink:title=" ">
<polygon fill="none" stroke="red" points="0,-155.5 0,-176.5 58,-176.5 58,-155.5 0,-155.5"/>
<text text-anchor="middle" x="29" y="-162.9" font-family="Helvetica,sans-Serif" font-size="12.00">Vector2</text>
</a>
</g>
</g>
<!-- Node3&#45;&gt;Node2 -->
<g id="edge2" class="edge"><title>Node3&#45;&gt;Node2</title>
<path fill="none" stroke="#9a32cd" stroke-dasharray="5,2" d="M45.8294,-148.171C59.2302,-134.77 77.5034,-116.497 88.4873,-105.513"/>
<polygon fill="#9a32cd" stroke="#9a32cd" points="43.1904,-145.86 38.5942,-155.406 48.1401,-150.81 43.1904,-145.86"/>
<text text-anchor="middle" x="75" y="-127.4" font-family="Helvetica,sans-Serif" font-size="12.00"> p</text>
</g>
<!-- Node5 -->
<g id="node4" class="node"><title>Node5</title>
<g id="a_node4"><a xlink:href="structnkast_1_1_aether_1_1_physics2_d_1_1_common_1_1_complex.html" target="_top" xlink:title=" ">
<polygon fill="none" stroke="black" points="76.5,-155.5 76.5,-176.5 139.5,-176.5 139.5,-155.5 76.5,-155.5"/>
<text text-anchor="middle" x="108" y="-162.9" font-family="Helvetica,sans-Serif" font-size="12.00">Complex</text>
</a>
</g>
</g>
<!-- Node5&#45;&gt;Node2 -->
<g id="edge3" class="edge"><title>Node5&#45;&gt;Node2</title>
<path fill="none" stroke="#9a32cd" stroke-dasharray="5,2" d="M105.171,-145.481C103.277,-132.41 100.866,-115.778 99.3786,-105.513"/>
<polygon fill="#9a32cd" stroke="#9a32cd" points="101.711,-146.011 106.61,-155.406 108.639,-145.007 101.711,-146.011"/>
<text text-anchor="middle" x="109" y="-127.4" font-family="Helvetica,sans-Serif" font-size="12.00"> q</text>
</g>
<!-- Node6 -->
<g id="node5" class="node"><title>Node6</title>
<g id="a_node5"><a xlink:href="structnkast_1_1_aether_1_1_physics2_d_1_1_collision_1_1_distance_proxy.html" target="_top" xlink:title="A distance proxy is used by the GJK algorithm. It encapsulates any shape.">
<polygon fill="none" stroke="black" points="151,-84.5 151,-105.5 243,-105.5 243,-84.5 151,-84.5"/>
<text text-anchor="middle" x="197" y="-91.9" font-family="Helvetica,sans-Serif" font-size="12.00">DistanceProxy</text>
</a>
</g>
</g>
<!-- Node6&#45;&gt;Node1 -->
<g id="edge4" class="edge"><title>Node6&#45;&gt;Node1</title>
<path fill="none" stroke="#9a32cd" stroke-dasharray="5,2" d="M189.562,-74.8959C185.086,-64.2781 178.921,-51.0244 172,-40 167.919,-33.5 162.504,-26.8362 157.954,-21.6409"/>
<polygon fill="#9a32cd" stroke="#9a32cd" points="186.437,-76.5046 193.44,-84.455 192.923,-73.8728 186.437,-76.5046"/>
<text text-anchor="middle" x="206.5" y="-56.4" font-family="Helvetica,sans-Serif" font-size="12.00"> ProxyA</text>
<text text-anchor="middle" x="206.5" y="-43.4" font-family="Helvetica,sans-Serif" font-size="12.00">ProxyB</text>
</g>
<!-- Node7 -->
<g id="node6" class="node"><title>Node7</title>
<g id="a_node6"><a xlink:href="classnkast_1_1_aether_1_1_physics2_d_1_1_common_1_1_vertices.html" target="_top" xlink:title=" ">
<polygon fill="none" stroke="red" points="167,-155.5 167,-176.5 227,-176.5 227,-155.5 167,-155.5"/>
<text text-anchor="middle" x="197" y="-162.9" font-family="Helvetica,sans-Serif" font-size="12.00">Vertices</text>
</a>
</g>
</g>
<!-- Node7&#45;&gt;Node6 -->
<g id="edge5" class="edge"><title>Node7&#45;&gt;Node6</title>
<path fill="none" stroke="#9a32cd" stroke-dasharray="5,2" d="M197,-145.088C197,-132.078 197,-115.675 197,-105.513"/>
<polygon fill="#9a32cd" stroke="#9a32cd" points="193.5,-145.406 197,-155.406 200.5,-145.406 193.5,-145.406"/>
<text text-anchor="middle" x="220.5" y="-127.4" font-family="Helvetica,sans-Serif" font-size="12.00"> Vertices</text>
</g>
</g>
</svg>
