<?xml version="1.0" encoding="UTF-8" standalone="no"?>
<!DOCTYPE svg PUBLIC "-//W3C//DTD SVG 1.1//EN"
 "http://www.w3.org/Graphics/SVG/1.1/DTD/svg11.dtd">
<!-- Generated by graphviz version 2.38.0 (20140413.2041)
 -->
<!-- Title: ManifoldPoint Pages: 1 -->
<svg width="258pt" height="172pt"
 viewBox="0.00 0.00 257.50 172.00" xmlns="http://www.w3.org/2000/svg" xmlns:xlink="http://www.w3.org/1999/xlink">
<g id="graph0" class="graph" transform="scale(1 1) rotate(0) translate(4 168)">
<title>ManifoldPoint</title>
<!-- Node1 -->
<g id="node1" class="node"><title>Node1</title>
<g id="a_node1"><a xlink:title="A manifold point is a contact point belonging to a contact manifold. It holds details related to the ...">
<polygon fill="#bfbfbf" stroke="black" points="83.5,-0.5 83.5,-21.5 171.5,-21.5 171.5,-0.5 83.5,-0.5"/>
<text text-anchor="middle" x="127.5" y="-7.9" font-family="Helvetica,sans-Serif" font-size="12.00">ManifoldPoint</text>
</a>
</g>
</g>
<!-- Node2 -->
<g id="node2" class="node"><title>Node2</title>
<g id="a_node2"><a xlink:href="structnkast_1_1_aether_1_1_physics2_d_1_1_common_1_1_vector2.html" target="_top" xlink:title=" ">
<polygon fill="none" stroke="black" points="41.5,-71.5 41.5,-92.5 99.5,-92.5 99.5,-71.5 41.5,-71.5"/>
<text text-anchor="middle" x="70.5" y="-78.9" font-family="Helvetica,sans-Serif" font-size="12.00">Vector2</text>
</a>
</g>
</g>
<!-- Node2&#45;&gt;Node1 -->
<g id="edge1" class="edge"><title>Node2&#45;&gt;Node1</title>
<path fill="none" stroke="#9a32cd" stroke-dasharray="5,2" d="M77.4445,-62.2028C80.7186,-54.819 85.1037,-46.5595 90.5,-40 96.3344,-32.9081 104.31,-26.5799 111.362,-21.7416"/>
<polygon fill="#9a32cd" stroke="#9a32cd" points="74.1942,-60.9046 73.678,-71.4868 80.6807,-63.5362 74.1942,-60.9046"/>
<text text-anchor="middle" x="120" y="-43.4" font-family="Helvetica,sans-Serif" font-size="12.00"> LocalPoint</text>
</g>
<!-- Node3 -->
<g id="node3" class="node"><title>Node3</title>
<g id="a_node3"><a xlink:title=" ">
<polygon fill="none" stroke="#bfbfbf" points="0,-142.5 0,-163.5 133,-163.5 133,-142.5 0,-142.5"/>
<text text-anchor="middle" x="66.5" y="-149.9" font-family="Helvetica,sans-Serif" font-size="12.00">IEquatable&lt; Vector2 &gt;</text>
</a>
</g>
</g>
<!-- Node3&#45;&gt;Node2 -->
<g id="edge2" class="edge"><title>Node3&#45;&gt;Node2</title>
<path fill="none" stroke="midnightblue" d="M67.6543,-132.088C68.4085,-119.078 69.3594,-102.675 69.9485,-92.5127"/>
<polygon fill="midnightblue" stroke="midnightblue" points="64.1409,-132.22 67.0562,-142.406 71.1291,-132.625 64.1409,-132.22"/>
</g>
<!-- Node4 -->
<g id="node4" class="node"><title>Node4</title>
<g id="a_node4"><a xlink:href="structnkast_1_1_aether_1_1_physics2_d_1_1_collision_1_1_contact_i_d.html" target="_top" xlink:title="Contact ids to facilitate warm starting.">
<polygon fill="none" stroke="black" points="163.5,-71.5 163.5,-92.5 231.5,-92.5 231.5,-71.5 163.5,-71.5"/>
<text text-anchor="middle" x="197.5" y="-78.9" font-family="Helvetica,sans-Serif" font-size="12.00">ContactID</text>
</a>
</g>
</g>
<!-- Node4&#45;&gt;Node1 -->
<g id="edge3" class="edge"><title>Node4&#45;&gt;Node1</title>
<path fill="none" stroke="#9a32cd" stroke-dasharray="5,2" d="M180.427,-64.1706C166.832,-50.7698 148.294,-32.4966 137.151,-21.5127"/>
<polygon fill="#9a32cd" stroke="#9a32cd" points="178.188,-66.8784 187.767,-71.4058 183.102,-61.8932 178.188,-66.8784"/>
<text text-anchor="middle" x="176" y="-43.4" font-family="Helvetica,sans-Serif" font-size="12.00"> Id</text>
</g>
<!-- Node5 -->
<g id="node5" class="node"><title>Node5</title>
<g id="a_node5"><a xlink:href="structnkast_1_1_aether_1_1_physics2_d_1_1_collision_1_1_contact_feature.html" target="_top" xlink:title="The features that intersect to form the contact point This must be 4 bytes or less.">
<polygon fill="none" stroke="black" points="151.5,-142.5 151.5,-163.5 249.5,-163.5 249.5,-142.5 151.5,-142.5"/>
<text text-anchor="middle" x="200.5" y="-149.9" font-family="Helvetica,sans-Serif" font-size="12.00">ContactFeature</text>
</a>
</g>
</g>
<!-- Node5&#45;&gt;Node4 -->
<g id="edge4" class="edge"><title>Node5&#45;&gt;Node4</title>
<path fill="none" stroke="#9a32cd" stroke-dasharray="5,2" d="M199.634,-132.088C199.069,-119.078 198.355,-102.675 197.914,-92.5127"/>
<polygon fill="#9a32cd" stroke="#9a32cd" points="196.152,-132.567 200.083,-142.406 203.145,-132.263 196.152,-132.567"/>
<text text-anchor="middle" x="224.5" y="-114.4" font-family="Helvetica,sans-Serif" font-size="12.00"> Features</text>
</g>
</g>
</svg>
