<?xml version="1.0" encoding="UTF-8" standalone="no"?>
<!DOCTYPE svg PUBLIC "-//W3C//DTD SVG 1.1//EN"
 "http://www.w3.org/Graphics/SVG/1.1/DTD/svg11.dtd">
<!-- Generated by graphviz version 2.38.0 (20140413.2041)
 -->
<!-- Title: ClipVertex Pages: 1 -->
<svg width="258pt" height="172pt"
 viewBox="0.00 0.00 257.50 172.00" xmlns="http://www.w3.org/2000/svg" xmlns:xlink="http://www.w3.org/1999/xlink">
<g id="graph0" class="graph" transform="scale(1 1) rotate(0) translate(4 168)">
<title>ClipVertex</title>
<!-- Node1 -->
<g id="node1" class="node"><title>Node1</title>
<g id="a_node1"><a xlink:title="Used for computing contact manifolds.">
<polygon fill="#bfbfbf" stroke="black" points="107,-0.5 107,-21.5 178,-21.5 178,-0.5 107,-0.5"/>
<text text-anchor="middle" x="142.5" y="-7.9" font-family="Helvetica,sans-Serif" font-size="12.00">ClipVertex</text>
</a>
</g>
</g>
<!-- Node2 -->
<g id="node2" class="node"><title>Node2</title>
<g id="a_node2"><a xlink:href="structnkast_1_1_aether_1_1_physics2_d_1_1_common_1_1_vector2.html" target="_top" xlink:title=" ">
<polygon fill="none" stroke="black" points="51.5,-71.5 51.5,-92.5 109.5,-92.5 109.5,-71.5 51.5,-71.5"/>
<text text-anchor="middle" x="80.5" y="-78.9" font-family="Helvetica,sans-Serif" font-size="12.00">Vector2</text>
</a>
</g>
</g>
<!-- Node2&#45;&gt;Node1 -->
<g id="edge1" class="edge"><title>Node2&#45;&gt;Node1</title>
<path fill="none" stroke="#9a32cd" stroke-dasharray="5,2" d="M95.9608,-63.7936C107.97,-50.4289 124.175,-32.394 133.952,-21.5127"/>
<polygon fill="#9a32cd" stroke="#9a32cd" points="93.2011,-61.6282 89.1208,-71.4058 98.408,-66.3068 93.2011,-61.6282"/>
<text text-anchor="middle" x="123.5" y="-43.4" font-family="Helvetica,sans-Serif" font-size="12.00"> V</text>
</g>
<!-- Node3 -->
<g id="node3" class="node"><title>Node3</title>
<g id="a_node3"><a xlink:title=" ">
<polygon fill="none" stroke="#bfbfbf" points="0,-142.5 0,-163.5 133,-163.5 133,-142.5 0,-142.5"/>
<text text-anchor="middle" x="66.5" y="-149.9" font-family="Helvetica,sans-Serif" font-size="12.00">IEquatable&lt; Vector2 &gt;</text>
</a>
</g>
</g>
<!-- Node3&#45;&gt;Node2 -->
<g id="edge2" class="edge"><title>Node3&#45;&gt;Node2</title>
<path fill="none" stroke="midnightblue" d="M70.4603,-132.481C73.1124,-119.41 76.4871,-102.778 78.5699,-92.5127"/>
<polygon fill="midnightblue" stroke="midnightblue" points="67.0051,-131.91 68.4466,-142.406 73.8653,-133.302 67.0051,-131.91"/>
</g>
<!-- Node4 -->
<g id="node4" class="node"><title>Node4</title>
<g id="a_node4"><a xlink:href="structnkast_1_1_aether_1_1_physics2_d_1_1_collision_1_1_contact_i_d.html" target="_top" xlink:title="Contact ids to facilitate warm starting.">
<polygon fill="none" stroke="black" points="153.5,-71.5 153.5,-92.5 221.5,-92.5 221.5,-71.5 153.5,-71.5"/>
<text text-anchor="middle" x="187.5" y="-78.9" font-family="Helvetica,sans-Serif" font-size="12.00">ContactID</text>
</a>
</g>
</g>
<!-- Node4&#45;&gt;Node1 -->
<g id="edge3" class="edge"><title>Node4&#45;&gt;Node1</title>
<path fill="none" stroke="#9a32cd" stroke-dasharray="5,2" d="M175.531,-62.6479C166.9,-49.4138 155.6,-32.086 148.704,-21.5127"/>
<polygon fill="#9a32cd" stroke="#9a32cd" points="172.849,-64.9417 181.243,-71.4058 178.712,-61.1178 172.849,-64.9417"/>
<text text-anchor="middle" x="177" y="-43.4" font-family="Helvetica,sans-Serif" font-size="12.00"> ID</text>
</g>
<!-- Node5 -->
<g id="node5" class="node"><title>Node5</title>
<g id="a_node5"><a xlink:href="structnkast_1_1_aether_1_1_physics2_d_1_1_collision_1_1_contact_feature.html" target="_top" xlink:title="The features that intersect to form the contact point This must be 4 bytes or less.">
<polygon fill="none" stroke="black" points="151.5,-142.5 151.5,-163.5 249.5,-163.5 249.5,-142.5 151.5,-142.5"/>
<text text-anchor="middle" x="200.5" y="-149.9" font-family="Helvetica,sans-Serif" font-size="12.00">ContactFeature</text>
</a>
</g>
</g>
<!-- Node5&#45;&gt;Node4 -->
<g id="edge4" class="edge"><title>Node5&#45;&gt;Node4</title>
<path fill="none" stroke="#9a32cd" stroke-dasharray="5,2" d="M196.823,-132.481C194.36,-119.41 191.226,-102.778 189.292,-92.5127"/>
<polygon fill="#9a32cd" stroke="#9a32cd" points="193.401,-133.227 198.692,-142.406 200.28,-131.931 193.401,-133.227"/>
<text text-anchor="middle" x="220.5" y="-114.4" font-family="Helvetica,sans-Serif" font-size="12.00"> Features</text>
</g>
</g>
</svg>
