<?xml version="1.0" encoding="UTF-8" standalone="no"?>
<!DOCTYPE svg PUBLIC "-//W3C//DTD SVG 1.1//EN"
 "http://www.w3.org/Graphics/SVG/1.1/DTD/svg11.dtd">
<!-- Generated by graphviz version 2.38.0 (20140413.2041)
 -->
<!-- Title: Manifold Pages: 1 -->
<svg width="328pt" height="186pt"
 viewBox="0.00 0.00 327.50 186.00" xmlns="http://www.w3.org/2000/svg" xmlns:xlink="http://www.w3.org/1999/xlink">
<g id="graph0" class="graph" transform="scale(1 1) rotate(0) translate(4 182)">
<title>Manifold</title>
<!-- Node1 -->
<g id="node1" class="node"><title>Node1</title>
<g id="a_node1"><a xlink:title="A manifold for two touching convex Shapes. Box2D supports multiple types of contact:">
<polygon fill="#bfbfbf" stroke="black" points="124.5,-0.5 124.5,-21.5 185.5,-21.5 185.5,-0.5 124.5,-0.5"/>
<text text-anchor="middle" x="155" y="-7.9" font-family="Helvetica,sans-Serif" font-size="12.00">Manifold</text>
</a>
</g>
</g>
<!-- Node2 -->
<g id="node2" class="node"><title>Node2</title>
<g id="a_node2"><a xlink:href="structnkast_1_1_aether_1_1_physics2_d_1_1_common_1_1_fixed_array2.html" target="_top" xlink:title=" ">
<polygon fill="none" stroke="black" points="0,-84.5 0,-118.5 206,-118.5 206,-84.5 0,-84.5"/>
<text text-anchor="start" x="8" y="-104.9" font-family="Helvetica,sans-Serif" font-size="12.00">FixedArray2&lt; nkast.Aether.Physics2</text>
<text text-anchor="middle" x="103" y="-91.9" font-family="Helvetica,sans-Serif" font-size="12.00">D.Collision.ManifoldPoint &gt;</text>
</a>
</g>
</g>
<!-- Node2&#45;&gt;Node1 -->
<g id="edge1" class="edge"><title>Node2&#45;&gt;Node1</title>
<path fill="none" stroke="#9a32cd" stroke-dasharray="5,2" d="M117.719,-75.4498C128.254,-57.5204 141.854,-34.3739 149.373,-21.5762"/>
<polygon fill="#9a32cd" stroke="#9a32cd" points="114.586,-73.8728 112.538,-84.2677 120.621,-77.419 114.586,-73.8728"/>
<text text-anchor="middle" x="156.5" y="-49.9" font-family="Helvetica,sans-Serif" font-size="12.00"> Points</text>
</g>
<!-- Node3 -->
<g id="node3" class="node"><title>Node3</title>
<g id="a_node3"><a xlink:href="structnkast_1_1_aether_1_1_physics2_d_1_1_common_1_1_vector2.html" target="_top" xlink:title=" ">
<polygon fill="none" stroke="black" points="224,-91 224,-112 282,-112 282,-91 224,-91"/>
<text text-anchor="middle" x="253" y="-98.4" font-family="Helvetica,sans-Serif" font-size="12.00">Vector2</text>
</a>
</g>
</g>
<!-- Node3&#45;&gt;Node1 -->
<g id="edge2" class="edge"><title>Node3&#45;&gt;Node1</title>
<path fill="none" stroke="#9a32cd" stroke-dasharray="5,2" d="M234.454,-83.7521C214.092,-65.3632 182.102,-36.475 165.613,-21.5841"/>
<polygon fill="#9a32cd" stroke="#9a32cd" points="232.37,-86.5862 242.138,-90.6908 237.062,-81.391 232.37,-86.5862"/>
<text text-anchor="middle" x="247" y="-56.4" font-family="Helvetica,sans-Serif" font-size="12.00"> LocalNormal</text>
<text text-anchor="middle" x="247" y="-43.4" font-family="Helvetica,sans-Serif" font-size="12.00">LocalPoint</text>
</g>
<!-- Node4 -->
<g id="node4" class="node"><title>Node4</title>
<g id="a_node4"><a xlink:title=" ">
<polygon fill="none" stroke="#bfbfbf" points="186.5,-156.5 186.5,-177.5 319.5,-177.5 319.5,-156.5 186.5,-156.5"/>
<text text-anchor="middle" x="253" y="-163.9" font-family="Helvetica,sans-Serif" font-size="12.00">IEquatable&lt; Vector2 &gt;</text>
</a>
</g>
</g>
<!-- Node4&#45;&gt;Node3 -->
<g id="edge3" class="edge"><title>Node4&#45;&gt;Node3</title>
<path fill="none" stroke="midnightblue" d="M253,-146.111C253,-134.831 253,-121.218 253,-112.235"/>
<polygon fill="midnightblue" stroke="midnightblue" points="249.5,-146.356 253,-156.356 256.5,-146.356 249.5,-146.356"/>
</g>
</g>
</svg>
